<?xml version="1.0" standalone="no"?>
<!DOCTYPE svg PUBLIC "-//W3C//DTD SVG 20010904//EN"
 "http://www.w3.org/TR/2001/REC-SVG-20010904/DTD/svg10.dtd">
<svg version="1.0" xmlns="http://www.w3.org/2000/svg"
 width="2421.000000pt" height="2223.000000pt" viewBox="0 0 2421.000000 2223.000000"
 preserveAspectRatio="xMidYMid meet">

<g transform="translate(0.000000,2223.000000) scale(0.100000,-0.100000)"
fill="#000000" stroke="none">
<path d="M12875 20501 c-21 -12 -48 -21 -58 -21 -49 0 15 -31 168 -81 91 -30
165 -59 165 -64 0 -10 -95 -42 -267 -92 -35 -10 -63 -21 -63 -24 0 -4 17 -11
38 -17 34 -10 115 -38 417 -147 66 -24 161 -57 210 -75 50 -17 99 -35 110 -40
11 -5 47 -18 80 -29 33 -11 98 -34 145 -51 47 -18 95 -34 108 -37 13 -3 21
-10 20 -15 -4 -10 -503 -179 -533 -180 -11 0 -112 34 -225 76 -244 92 -263 99
-315 119 -22 9 -132 50 -245 92 -262 97 -310 116 -336 127 -15 7 -49 1 -130
-25 -60 -20 -134 -43 -165 -53 l-57 -17 -123 48 c-145 55 -184 66 -196 54 -23
-23 -537 -151 -884 -219 -217 -43 -226 -44 -268 -27 -230 96 -520 207 -539
207 -10 0 -13 -9 -10 -30 5 -33 4 -34 -84 -44 -49 -6 -87 -22 -156 -69 -63
-41 -70 -97 -15 -117 16 -6 42 -17 58 -25 17 -7 71 -29 120 -49 50 -19 144
-56 210 -81 102 -40 199 -77 429 -161 743 -275 927 -346 970 -379 39 -30 44
-51 21 -95 -31 -59 -111 -104 -294 -162 -126 -40 -444 -150 -661 -228 -63 -23
-164 -59 -225 -80 -60 -21 -211 -75 -335 -120 -124 -45 -292 -106 -375 -136
-184 -67 -272 -90 -400 -105 -123 -14 -384 -7 -480 15 -98 21 -111 26 -770
288 -572 228 -762 303 -930 367 -45 17 -103 45 -130 63 -44 29 -58 32 -120 33
-74 0 -152 -28 -205 -74 -24 -20 -24 -22 -7 -35 9 -7 35 -16 57 -20 22 -3 142
-51 267 -105 215 -93 376 -161 593 -253 52 -21 104 -43 115 -48 11 -5 85 -37
165 -71 80 -34 213 -91 295 -126 83 -35 168 -71 190 -81 62 -25 113 -59 131
-87 14 -22 15 -30 3 -58 -40 -101 -127 -153 -424 -255 -49 -17 -135 -48 -190
-68 -55 -20 -190 -67 -300 -105 -110 -39 -301 -106 -425 -150 -124 -45 -254
-92 -290 -104 -36 -13 -153 -55 -260 -93 -376 -135 -508 -159 -759 -141 -204
15 -261 35 -724 253 -148 69 -402 185 -565 257 -678 300 -681 301 -705 370
l-12 36 -96 -28 c-121 -34 -187 -69 -238 -124 -53 -57 -70 -92 -87 -182 -13
-67 -13 -83 1 -135 8 -33 15 -76 15 -96 l1 -37 29 35 c16 19 32 43 35 53 10
28 77 22 154 -14 36 -17 75 -34 86 -39 11 -5 60 -27 109 -50 49 -22 92 -40 97
-40 4 0 79 -32 166 -71 87 -39 214 -96 283 -126 69 -29 149 -65 178 -78 29
-14 55 -25 57 -25 2 0 69 -30 147 -66 79 -36 201 -90 272 -121 266 -113 368
-167 413 -215 84 -93 109 -171 118 -368 5 -105 4 -150 -4 -150 -6 0 -40 14
-76 30 -36 17 -68 30 -70 30 -3 0 -42 18 -87 39 -94 45 -272 126 -463 211 -71
32 -166 75 -210 95 -44 20 -96 44 -115 52 -19 9 -42 22 -50 28 -8 7 -58 31
-110 55 -52 23 -113 50 -135 60 -200 92 -253 117 -270 127 -17 10 -20 27 -27
190 -8 196 -15 258 -32 272 -6 5 -80 39 -163 76 -131 58 -159 67 -193 62 -52
-7 -65 -18 -98 -86 -25 -52 -27 -65 -27 -186 0 -189 14 -499 27 -582 6 -39 8
-84 5 -100 -6 -31 -4 -82 48 -1093 8 -157 19 -377 25 -490 6 -113 12 -235 15
-272 7 -121 60 -260 135 -358 47 -60 47 -74 -1 -124 -25 -25 -53 -70 -68 -107
-23 -60 -25 -74 -24 -217 1 -101 6 -158 14 -168 7 -9 30 -14 60 -14 27 0 49
-4 49 -10 0 -5 9 -10 19 -10 11 0 22 -4 26 -9 3 -6 43 -28 88 -49 45 -22 159
-77 252 -122 94 -45 197 -95 230 -110 33 -15 110 -51 170 -80 61 -29 207 -99
325 -155 391 -187 474 -226 595 -285 171 -82 218 -138 265 -315 14 -52 20
-123 25 -275 3 -113 8 -241 10 -285 2 -44 7 -138 11 -209 l6 -128 -43 7 c-24
4 -117 25 -207 46 -181 45 -265 75 -242 89 7 5 15 19 17 32 9 57 4 287 -7 328
-7 25 -14 52 -16 60 -20 80 -22 85 -23 60 0 -14 6 -52 14 -85 19 -78 19 -283
1 -353 -23 -86 -84 -149 -170 -177 -17 -5 -9 -16 51 -73 76 -72 108 -115 171
-232 79 -147 112 -289 112 -480 0 -150 -20 -226 -81 -303 -54 -70 -93 -90
-184 -95 -118 -6 -178 21 -695 313 -85 48 -174 96 -196 106 l-41 19 -7 87 c-3
49 -11 183 -16 298 -6 116 -12 246 -15 290 -3 44 -10 179 -16 300 -19 406 -25
479 -37 483 -16 5 -204 149 -291 222 -93 79 -163 131 -169 126 -5 -5 32 -576
48 -746 5 -58 12 -132 14 -165 3 -33 10 -61 15 -63 14 -5 14 -38 0 -63 -7 -15
-7 -24 1 -33 6 -8 15 -51 20 -97 17 -153 40 -383 46 -479 8 -101 27 -170 39
-137 10 24 18 21 33 -13 8 -16 20 -30 28 -30 8 0 14 -9 14 -20 0 -15 7 -20 25
-20 14 0 25 -4 25 -10 0 -5 7 -10 16 -10 8 0 27 -13 41 -30 20 -24 33 -30 64
-30 32 0 39 -3 39 -20 0 -13 7 -20 20 -20 13 0 20 -7 20 -20 0 -13 7 -20 20
-20 12 0 20 7 20 16 0 12 12 7 44 -20 24 -20 51 -36 60 -36 9 0 16 -8 16 -20
0 -16 7 -20 35 -20 26 0 35 -4 35 -16 0 -9 8 -23 18 -30 21 -16 32 -17 32 -4
0 6 -8 10 -17 10 -11 0 -13 3 -7 9 5 5 21 7 37 4 20 -4 27 -11 27 -29 0 -17 6
-24 20 -24 13 0 20 -7 20 -20 0 -16 6 -20 33 -19 17 0 53 -5 80 -12 41 -11 47
-16 47 -39 0 -45 37 -70 103 -70 57 0 57 0 57 -30 0 -23 4 -30 20 -30 11 0 40
-5 65 -12 32 -9 45 -17 45 -30 0 -14 8 -18 39 -18 33 0 40 -4 51 -30 8 -20 20
-30 34 -30 23 -1 66 -32 66 -49 0 -6 17 -11 38 -11 26 0 45 -7 57 -20 10 -11
29 -20 42 -20 16 0 23 -6 23 -20 0 -17 7 -20 40 -20 33 0 40 -3 40 -20 0 -13
7 -20 18 -20 11 0 27 -9 36 -19 9 -10 37 -22 61 -25 43 -7 84 -35 54 -37 -8
-1 4 -7 26 -13 79 -25 85 -28 85 -47 0 -15 7 -19 40 -19 22 0 39 3 39 8 -4 26
2 33 17 17 9 -9 14 -25 11 -35 -3 -11 -1 -20 4 -20 13 0 5 -90 -10 -118 -6
-12 -19 -22 -29 -23 -9 0 -25 -2 -34 -4 -10 -2 -34 8 -54 21 -19 13 -50 31
-67 39 -18 8 -54 28 -82 44 -27 16 -66 37 -85 47 -19 10 -37 21 -40 24 -6 7
-108 67 -155 90 -16 8 -32 17 -35 20 -3 4 -72 45 -155 92 -82 48 -164 95 -182
105 -122 71 -163 93 -171 93 -6 0 -12 4 -14 9 -2 5 -61 41 -133 82 -71 40
-133 77 -137 83 -3 5 -13 11 -22 12 -8 1 -41 18 -73 37 -176 105 -172 103
-288 167 -76 42 -116 72 -113 82 2 5 -21 35 -50 66 -29 31 -57 66 -62 77 -8
17 -9 16 -9 -10 -1 -52 57 -147 153 -248 20 -21 36 -42 36 -45 0 -4 -26 -35
-57 -68 -86 -89 -98 -132 -97 -319 2 -185 21 -587 34 -715 5 -52 12 -180 15
-285 13 -453 47 -1247 59 -1350 3 -27 8 -140 11 -249 3 -110 8 -202 10 -206 2
-4 9 -36 15 -73 6 -36 24 -92 41 -124 29 -57 39 -102 43 -193 1 -25 6 -53 10
-63 5 -11 4 -23 -3 -30 -7 -7 -11 -55 -10 -137 2 -141 16 -234 18 -115 2 98
10 136 35 167 28 35 64 29 73 -13 3 -16 10 -29 15 -29 6 0 8 -9 5 -21 -3 -12
0 -22 9 -26 7 -3 16 -26 20 -54 4 -27 13 -54 20 -60 8 -6 14 -17 14 -24 0 -18
140 -159 171 -172 20 -9 26 -19 27 -43 1 -45 12 -90 22 -90 4 0 38 -18 75 -41
37 -22 69 -38 72 -35 8 8 75 -30 99 -56 24 -26 76 -53 115 -62 15 -3 42 -20
60 -37 18 -17 42 -33 53 -35 26 -5 96 -52 96 -64 0 -6 10 -10 23 -10 12 0 49
-18 82 -40 33 -22 66 -40 73 -40 7 0 39 -19 70 -42 58 -43 137 -87 159 -88 6
0 33 -17 60 -38 26 -21 62 -44 80 -51 18 -7 38 -19 44 -27 18 -22 29 -16 29
16 0 36 9 37 58 7 20 -13 52 -29 69 -36 18 -7 30 -17 27 -22 -3 -5 1 -9 9 -9
16 0 196 -95 216 -115 7 -7 23 -51 35 -97 12 -46 27 -84 34 -84 6 -1 16 -2 22
-3 5 0 20 -12 33 -25 14 -13 47 -36 75 -50 27 -14 57 -33 66 -42 9 -9 19 -14
21 -12 3 3 10 31 16 64 15 72 25 89 45 70 16 -17 535 -301 662 -364 48 -23 94
-47 102 -52 23 -14 255 -142 340 -187 41 -22 91 -50 110 -61 19 -12 51 -30 70
-40 130 -68 262 -140 300 -164 25 -15 70 -40 100 -56 30 -15 75 -40 100 -54
25 -15 79 -44 120 -66 201 -105 211 -113 230 -156 10 -22 21 -60 25 -84 6 -37
12 -45 53 -69 26 -15 61 -37 77 -49 17 -13 48 -31 70 -41 22 -10 51 -26 65
-36 63 -45 96 -62 112 -59 10 2 27 23 37 48 11 24 26 47 33 49 7 3 74 -28 148
-69 74 -41 169 -93 210 -115 41 -22 104 -57 140 -77 164 -91 422 -231 488
-265 40 -20 78 -41 85 -47 6 -5 57 -33 112 -61 55 -29 120 -63 145 -77 25 -14
106 -57 180 -96 74 -39 140 -74 145 -78 6 -4 69 -38 140 -76 317 -165 500
-254 570 -276 l75 -23 15 -50 c8 -27 17 -71 20 -98 6 -41 8 -46 24 -37 22 11
46 -5 59 -40 8 -22 10 -18 16 30 16 125 19 140 27 140 5 0 9 -10 9 -21 0 -21
3 -21 88 -14 121 9 130 12 158 56 13 22 31 39 39 39 9 0 23 5 33 10 18 11 176
71 257 98 28 9 51 20 53 24 2 4 9 8 16 8 7 0 69 23 137 50 68 28 127 50 131
50 4 0 35 13 70 29 35 16 101 43 148 61 90 35 113 45 253 109 48 22 107 47
130 55 23 8 65 24 92 36 28 13 70 31 95 42 71 32 113 49 135 57 11 4 45 20 75
34 30 15 59 27 63 27 4 0 37 14 72 30 35 17 71 30 79 30 9 0 46 15 83 34 71
36 81 40 178 77 33 12 67 28 75 34 8 7 42 22 75 33 54 19 87 32 222 93 24 10
50 19 58 19 8 0 15 3 15 8 0 4 18 13 41 20 52 16 65 7 74 -55 4 -25 9 -52 12
-59 6 -16 49 -19 58 -4 3 6 15 10 26 10 10 0 19 5 19 10 0 6 11 10 24 10 12 0
37 13 54 30 17 16 42 31 54 34 30 5 111 38 118 46 3 4 21 12 41 19 37 12 43
21 79 118 21 57 37 60 50 11 19 -76 19 -76 42 -48 15 17 22 21 26 12 3 -10 8
-7 19 7 8 12 18 19 22 16 5 -2 22 2 38 10 17 8 42 16 57 17 18 2 25 7 21 16
-3 10 0 12 10 8 28 -10 75 5 75 25 0 12 7 19 20 19 11 0 20 5 20 10 0 6 11 10
25 10 14 0 25 5 25 10 0 6 8 10 18 10 10 0 36 9 58 19 l39 19 3 -25 c2 -14 -1
-30 -7 -36 -6 -6 -11 -17 -11 -24 0 -23 17 -14 30 16 15 38 138 156 215 208
86 58 165 96 290 138 97 33 122 38 210 39 102 1 139 -9 188 -52 9 -8 17 -12
17 -8 0 10 -24 50 -34 58 -5 3 -4 18 3 35 13 33 77 67 159 84 28 6 52 14 52
19 0 4 13 10 29 13 16 3 35 12 42 20 8 7 26 17 41 20 15 4 34 14 43 23 10 10
24 14 39 10 16 -4 35 2 58 17 35 24 109 47 151 47 13 0 32 9 42 20 10 11 31
20 47 20 15 0 28 5 28 10 0 6 8 10 18 10 10 0 22 4 28 8 5 5 41 17 79 27 39
10 81 24 95 31 14 7 37 15 52 18 15 3 33 13 42 21 8 8 29 18 46 21 17 4 33 11
36 15 3 5 16 6 30 3 13 -3 30 -1 38 5 10 9 15 8 20 -4 4 -12 16 -14 49 -11 49
4 100 32 90 49 -3 5 -1 7 4 4 6 -4 16 0 23 8 7 8 16 13 20 10 4 -3 13 2 20 10
7 8 16 12 21 9 5 -3 9 1 9 10 0 9 15 17 40 21 25 4 40 12 40 21 0 8 9 14 21
14 11 0 18 4 15 8 -2 4 9 14 25 21 16 7 34 23 40 34 7 12 19 29 29 39 12 11
20 47 29 122 7 59 14 113 17 120 9 23 87 53 125 48 23 -2 40 1 44 9 6 9 3 11
-8 6 -10 -3 -17 -2 -17 4 0 16 31 23 40 9 6 -10 16 -5 41 20 28 27 36 31 51
21 22 -14 40 -6 36 16 -2 9 3 18 10 20 6 3 12 -2 12 -11 0 -14 3 -14 20 -4 11
7 20 19 20 26 0 19 31 27 42 11 7 -11 11 -11 15 -2 2 7 13 23 23 35 16 19 22
21 38 11 17 -10 23 -9 37 7 10 11 34 20 59 22 35 3 41 6 38 23 -2 16 -1 17 7
5 8 -12 15 -10 39 13 19 18 35 25 46 21 11 -4 22 0 31 13 10 14 22 19 43 15
24 -3 30 0 35 18 4 17 11 21 27 17 31 -8 106 29 113 55 6 21 7 21 19 6 12 -16
16 -16 56 3 24 11 48 31 54 44 9 20 14 22 34 15 29 -12 72 3 91 30 8 12 26 20
42 20 39 0 78 21 91 49 8 18 13 21 25 11 16 -13 35 -5 35 15 0 16 31 28 53 19
10 -3 20 2 26 15 9 15 18 19 39 15 22 -4 29 -1 37 18 8 18 17 22 42 20 24 -2
33 2 38 17 5 16 12 19 36 14 21 -4 29 -2 29 8 0 8 4 20 9 28 8 12 12 12 25 2
19 -16 36 -6 36 21 0 15 4 18 18 13 31 -12 36 -10 50 18 7 16 19 26 25 24 47
-19 47 -19 58 12 6 17 17 31 24 31 7 0 26 14 43 31 l31 32 12 -26 c10 -22 14
-24 25 -12 8 7 14 22 14 32 0 10 7 27 16 38 13 17 16 18 24 5 5 -8 10 -22 10
-30 0 -28 19 6 32 59 15 62 38 81 38 32 0 -17 4 -31 10 -31 16 0 30 37 30 79
0 34 -3 41 -20 41 -11 0 -20 5 -20 10 0 6 5 10 11 10 6 0 9 6 6 13 -5 14 7 18
57 17 65 -1 95 -49 117 -183 12 -77 12 -78 25 -49 6 16 12 36 11 43 -1 8 5 41
12 74 16 73 9 140 -20 191 -33 59 -27 189 13 288 25 60 25 23 20 1889 -1 648
0 1182 3 1186 9 16 -24 169 -46 213 -30 60 -51 84 -101 120 -71 51 -74 64 -21
110 105 92 163 184 183 288 12 65 26 576 41 1550 18 1180 18 1197 -8 1246 -47
89 -48 86 -50 -249 -1 -172 -5 -371 -8 -444 l-7 -132 -32 -20 c-17 -12 -51
-34 -76 -50 l-45 -30 -6 -83 c-3 -46 -6 -159 -8 -252 -1 -94 -6 -175 -12 -182
-5 -6 -37 -22 -72 -34 -34 -12 -75 -28 -92 -36 -16 -7 -64 -26 -105 -42 l-75
-30 -7 -158 c-4 -88 -11 -432 -17 -766 -5 -334 -12 -612 -15 -616 -3 -5 -52
-28 -108 -51 -93 -38 -132 -54 -193 -81 -11 -5 -62 -27 -114 -49 -51 -23 -99
-41 -106 -41 -10 0 -12 28 -9 123 10 318 29 1386 25 1419 -1 3 -38 -9 -83 -29
-46 -19 -94 -38 -108 -43 -14 -4 -42 -15 -62 -24 -21 -9 -42 -16 -48 -16 -6 0
-10 68 -10 195 0 123 -4 195 -10 195 -5 0 -10 -4 -10 -9 0 -10 -129 -54 -260
-88 -166 -44 -418 -91 -574 -109 -83 -9 -159 -20 -168 -25 -9 -5 -19 -9 -22
-9 -19 0 4 833 24 913 19 71 100 155 193 201 65 31 314 129 487 191 36 13 101
38 145 55 44 18 132 50 195 72 63 22 128 47 143 55 16 8 63 27 105 43 185 67
548 206 667 255 72 29 162 62 200 75 39 12 75 26 80 30 24 18 146 60 173 60
68 0 91 95 52 221 -20 66 -28 79 -91 138 -48 46 -69 74 -69 90 0 17 21 45 66
90 83 82 126 174 95 206 -5 6 -11 19 -13 30 -3 16 -8 12 -22 -20 -79 -174
-116 -227 -189 -270 -23 -13 -91 -42 -152 -63 -60 -22 -303 -110 -540 -196
-236 -87 -477 -174 -535 -195 -362 -131 -498 -181 -691 -252 -143 -52 -229
-79 -258 -79 -71 0 -123 38 -156 115 -17 37 -18 130 -16 1450 2 1357 3 1413
22 1489 24 98 50 151 106 215 55 63 96 82 368 176 121 42 263 91 315 110 202
70 471 165 610 214 161 58 542 191 810 283 148 50 182 59 219 54 25 -3 48 -11
51 -17 4 -6 18 -7 33 -4 34 9 42 48 34 166 -6 73 -12 96 -38 141 -36 61 -60
84 -144 134 -33 20 -75 52 -94 73 l-34 36 -15 -31 c-21 -46 -12 -42 -667 -270
-132 -45 -384 -133 -560 -194 -902 -314 -1103 -381 -1176 -392 -104 -15 -263
2 -372 40 -76 27 -687 268 -787 312 -46 20 -614 247 -815 326 -60 23 -155 61
-210 84 -55 23 -143 57 -195 75 -107 39 -117 53 -75 103 29 35 51 44 530 217
116 42 278 100 360 129 83 30 195 70 250 90 55 20 143 52 195 71 52 19 158 57
235 85 77 28 158 58 180 65 22 7 90 32 150 55 61 23 151 51 200 62 128 29 135
32 135 67 0 25 -8 35 -43 55 -24 14 -71 35 -106 46 -35 11 -79 33 -97 50 -42
36 -54 37 -83 6 -27 -29 -50 -39 -276 -120 -99 -35 -324 -116 -500 -179 -176
-63 -392 -141 -480 -172 -88 -32 -209 -75 -270 -97 -743 -268 -777 -277 -955
-264 -103 7 -171 26 -360 99 -80 30 -239 91 -355 135 -115 44 -250 96 -300
115 -813 310 -1181 447 -1200 447 -20 0 -29 23 -21 55 9 37 71 67 266 130 96
31 193 63 215 70 22 7 216 70 430 140 215 70 455 148 535 174 80 27 273 90
430 141 157 51 297 99 313 107 32 16 34 41 8 99 -25 55 -71 105 -118 128 -21
10 -50 25 -65 32 -14 8 -34 14 -43 14 -9 0 -35 15 -58 33 -52 42 -74 50 -81
31 -4 -11 -10 -12 -24 -5 -11 6 -86 33 -168 60 -213 71 -416 140 -439 151 -11
4 -74 27 -140 50 -262 91 -485 170 -580 205 -129 48 -142 50 -190 26z m-814
-1521 c24 -13 24 -26 0 -40 -25 -13 -51 -3 -51 19 0 32 17 38 51 21z m174
-291 c152 -19 240 -41 380 -96 214 -84 339 -132 685 -268 80 -31 271 -106 425
-166 478 -187 522 -207 544 -256 10 -21 7 -31 -20 -68 -39 -55 -125 -101 -269
-145 -58 -18 -172 -54 -255 -80 -449 -144 -691 -221 -785 -250 -58 -18 -179
-57 -270 -86 -560 -179 -559 -178 -774 -195 -249 -19 -463 12 -686 99 -129 50
-306 118 -515 196 -66 24 -228 86 -360 136 -132 50 -316 120 -410 155 -318
118 -417 163 -439 198 -26 42 89 157 187 186 29 8 162 49 382 118 44 13 118
35 165 49 77 23 159 48 435 134 50 15 117 35 150 45 33 9 71 20 85 25 14 5 72
23 130 40 58 18 139 42 180 55 41 13 98 30 125 38 216 65 263 80 285 89 27 11
78 20 230 43 162 24 230 25 395 4z m-3227 -792 c10 -10 10 -16 -1 -31 -18 -25
-90 -27 -114 -4 -16 16 -16 19 3 39 15 17 26 20 59 14 22 -3 46 -12 53 -18z
m-541 7 c-3 -3 -12 -4 -19 -1 -8 3 -5 6 6 6 11 1 17 -2 13 -5z m6467 -23 c21
-23 14 -38 -21 -52 -48 -18 -84 12 -63 52 14 25 62 25 84 0z m-5789 -168 c61
-15 143 -48 469 -191 169 -74 215 -102 167 -102 -11 0 -100 -41 -198 -91 -170
-87 -330 -159 -352 -159 -6 0 -11 6 -11 13 0 24 -137 96 -240 126 -25 7 -55
17 -68 22 -13 5 -35 9 -50 8 -17 0 3 -10 53 -26 109 -34 151 -52 212 -90 59
-37 63 -42 74 -91 9 -40 -2 -76 -33 -109 -21 -22 -21 -23 -2 -23 10 1 48 8 84
16 36 8 141 18 236 21 151 5 183 3 285 -17 63 -12 118 -26 124 -31 5 -5 16 -9
25 -9 8 0 28 -7 44 -15 15 -8 33 -15 40 -15 24 0 137 -81 156 -112 40 -66 20
-139 -56 -207 -43 -39 -213 -129 -284 -152 -14 -4 -63 -21 -110 -38 -47 -17
-132 -47 -190 -67 -58 -20 -148 -51 -200 -69 -52 -18 -156 -54 -230 -80 -74
-26 -154 -55 -176 -66 l-42 -20 -68 31 c-38 18 -82 38 -99 45 -90 40 -129 57
-220 98 -55 25 -128 57 -163 71 -34 15 -93 40 -130 57 -37 17 -80 37 -97 44
-61 27 -222 99 -290 130 -86 39 -123 49 -138 37 -7 -5 -32 -14 -57 -20 -178
-44 -255 -62 -325 -76 -44 -10 -96 -21 -115 -26 -60 -16 -140 -30 -169 -30
-15 0 -81 24 -147 53 -130 58 -149 67 -364 164 -80 35 -156 66 -169 68 -21 3
-40 20 -41 35 0 11 52 61 78 74 15 7 194 69 397 136 204 68 741 247 1195 398
454 151 863 283 910 293 94 20 182 18 285 -8z m5840 -117 c208 -36 283 -55
428 -110 170 -65 472 -180 542 -208 28 -11 95 -37 150 -57 154 -59 449 -171
670 -256 110 -42 223 -85 250 -96 83 -31 159 -81 169 -112 14 -40 -22 -109
-74 -142 -68 -43 -21 -26 -985 -344 -894 -295 -1032 -340 -1090 -355 -183 -47
-445 -59 -648 -30 -113 16 -270 62 -374 109 -31 14 -117 51 -192 81 -152 62
-494 206 -556 234 -22 10 -146 62 -275 115 -591 245 -640 267 -660 305 -24 45
3 94 84 149 57 39 109 60 346 135 610 194 766 243 830 262 25 7 86 26 135 43
279 91 706 225 745 233 242 50 393 64 505 44z m-4734 -362 c17 -8 89 -39 162
-69 318 -128 793 -337 812 -356 l20 -20 -40 -35 c-36 -32 -118 -69 -300 -135
-234 -84 -346 -123 -380 -131 -21 -5 -44 -13 -50 -17 -5 -5 -37 -17 -70 -29
-33 -11 -145 -50 -250 -87 -104 -36 -246 -86 -315 -110 -69 -24 -197 -68 -285
-99 -88 -30 -263 -91 -390 -135 -126 -44 -248 -87 -270 -95 -22 -8 -49 -15
-60 -16 -12 0 -25 -4 -30 -9 -35 -32 -315 -35 -360 -5 -19 14 -19 14 0 15 11
0 43 1 71 3 29 1 59 7 67 15 12 9 21 10 36 1 17 -9 21 -8 21 5 0 11 6 15 18
13 9 -3 34 4 54 14 21 10 42 18 48 18 6 0 19 7 27 16 12 11 26 14 50 9 29 -5
35 -3 40 14 5 19 13 21 84 21 78 0 79 0 79 25 0 22 4 25 33 25 17 0 46 -4 63
-9 29 -8 30 -8 26 21 l-4 29 52 -7 c39 -5 51 -4 46 5 -4 6 -2 11 3 11 6 0 11
-5 11 -12 0 -6 3 -8 7 -4 5 4 0 14 -11 21 -17 13 -15 14 18 20 20 4 36 11 36
16 0 4 17 11 38 15 46 9 99 30 107 44 11 17 55 12 55 -7 0 -13 3 -14 12 -5 17
17 26 15 31 -5 2 -10 3 -6 1 8 -2 20 2 28 16 32 11 3 20 12 20 21 0 12 10 16
34 16 19 0 38 5 41 10 8 13 65 13 65 0 0 -6 6 -5 14 2 11 11 9 15 -13 24 -26
11 -25 11 14 16 22 2 57 1 78 -3 34 -6 40 -4 44 12 3 12 14 19 28 19 13 0 25
5 27 10 2 6 32 15 67 20 40 5 67 15 75 26 9 12 22 15 46 12 26 -4 34 -1 38 14
2 10 12 18 21 18 14 0 14 -2 1 -10 -20 -13 -10 -12 28 1 16 5 32 19 35 30 4
16 14 19 57 19 33 0 57 5 67 16 13 13 17 13 24 2 7 -10 9 -10 9 3 0 16 40 30
157 52 54 11 61 14 52 30 -7 11 -7 17 1 17 5 0 10 -4 10 -9 0 -15 31 -22 48
-11 14 9 13 10 -5 5 -13 -4 -23 -3 -23 0 0 4 10 15 23 25 20 17 24 17 40 3 16
-15 17 -14 17 10 0 23 4 27 33 28 33 2 64 4 105 7 14 1 22 9 22 20 0 14 9 18
43 18 56 1 117 25 117 45 0 12 11 18 40 21 28 2 40 0 40 -9 0 -7 11 -13 25
-13 14 0 25 5 25 10 0 6 -9 10 -20 10 -11 0 -23 6 -26 14 -5 12 -23 22 -44 23
-3 0 -27 14 -55 30 -27 16 -70 38 -95 50 -25 11 -85 40 -135 63 -49 24 -112
53 -140 65 -27 13 -79 36 -115 53 -36 17 -105 49 -155 71 -139 64 -191 91
-177 91 7 0 27 -7 43 -16z m-4502 -413 c21 -13 5 -41 -22 -41 -32 0 -57 28
-36 41 18 11 40 11 58 0z m6055 -34 c24 -18 17 -48 -17 -67 -24 -13 -30 -13
-54 0 -28 16 -39 40 -29 66 7 18 76 19 100 1z m6021 -37 c20 -17 11 -29 -42
-52 -48 -21 -77 -17 -94 14 -8 15 -7 24 8 40 15 16 27 19 65 16 26 -3 54 -11
63 -18z m-7590 -139 c-3 -6 -11 -11 -17 -11 -6 0 -6 6 2 15 14 17 26 13 15 -4z
m-50 -50 c-3 -6 -13 -11 -21 -11 -8 0 -14 -4 -14 -9 0 -9 -39 -22 -51 -18 -4
1 -16 -6 -27 -16 -11 -10 -37 -20 -58 -23 l-39 -5 35 14 c19 8 61 26 92 40 31
15 62 27 67 27 6 0 11 5 11 12 0 6 3 9 6 5 3 -3 3 -10 -1 -16z m1630 -82 c57
-8 97 -21 163 -56 48 -25 94 -51 102 -57 8 -7 42 -23 75 -36 33 -13 65 -26 70
-30 6 -4 75 -35 155 -69 143 -61 180 -81 148 -81 -16 0 -118 43 -341 145
l-128 58 -52 -15 c-54 -17 -378 -127 -507 -173 -41 -15 -185 -65 -320 -112
-135 -46 -283 -98 -330 -115 -47 -16 -110 -36 -140 -43 -30 -8 -172 -55 -315
-105 -143 -50 -299 -103 -347 -119 l-87 -29 -98 45 c-54 25 -125 55 -158 68
l-60 23 -253 -87 c-196 -66 -262 -93 -292 -119 -55 -46 -87 -42 -60 9 17 31
78 64 190 102 58 20 218 75 355 122 138 47 302 103 365 125 63 21 167 57 230
79 292 102 473 165 565 196 55 18 233 79 395 135 303 105 374 125 495 139 100
12 96 12 180 0z m-1855 -24 c-7 -8 -21 -15 -31 -15 -10 0 -21 -4 -24 -10 -3
-5 -17 -10 -31 -10 -13 0 -24 -4 -24 -10 0 -5 -11 -10 -25 -10 -14 0 -25 -3
-25 -8 0 -4 -26 -13 -57 -21 -32 -7 -70 -19 -85 -27 -15 -8 -35 -16 -45 -17
-10 -2 -25 -6 -33 -9 -84 -31 -108 -38 -123 -38 -9 0 -17 -6 -17 -14 0 -9 -7
-12 -18 -9 -10 2 -31 -3 -47 -11 -17 -9 -37 -16 -46 -16 -8 0 -19 -4 -25 -8
-5 -5 -29 -15 -54 -22 -25 -8 -51 -18 -58 -23 -7 -6 -15 -7 -19 -4 -3 4 -11 3
-17 -2 -6 -5 -31 -12 -56 -15 -33 -5 -41 -4 -29 3 21 14 168 64 234 81 28 7
55 16 60 21 11 8 231 86 285 100 19 6 44 14 55 19 11 5 47 18 80 29 33 11 83
29 110 40 63 25 82 27 65 6z m-53 -61 c-3 -3 -12 -4 -19 -1 -8 3 -5 6 6 6 11
1 17 -2 13 -5z m-3766 -80 c52 -25 130 -61 174 -79 44 -19 109 -48 145 -66 89
-43 189 -89 196 -89 3 0 35 -14 72 -31 203 -96 265 -124 339 -155 46 -18 99
-43 120 -54 21 -11 41 -20 45 -20 7 0 180 -78 343 -154 50 -23 162 -74 250
-112 143 -62 165 -75 220 -129 66 -65 102 -129 133 -240 17 -59 22 -123 31
-405 7 -184 16 -443 21 -575 5 -132 14 -359 20 -505 5 -146 14 -373 20 -505
47 -1109 48 -1059 -14 -1131 -31 -35 -38 -39 -82 -39 -43 1 -99 25 -479 214
-895 445 -1517 751 -1525 751 -21 0 -118 110 -147 166 -60 114 -60 114 -93
1024 -6 157 -17 456 -25 665 -54 1416 -53 1361 -20 1425 54 103 113 114 256
44z m11390 -76 c72 -40 74 -55 72 -438 -2 -184 -7 -519 -13 -745 -5 -225 -15
-702 -21 -1060 -13 -779 -16 -836 -57 -926 -40 -85 -101 -161 -155 -193 -23
-14 -173 -74 -332 -134 -160 -60 -633 -238 -1053 -395 -420 -158 -781 -291
-802 -296 -91 -20 -185 28 -212 109 -9 26 -13 388 -14 1480 -1 1602 -4 1536
62 1675 13 28 32 59 41 70 24 26 132 100 158 107 11 3 92 31 180 62 88 32 237
83 330 116 244 83 560 193 865 299 146 51 337 117 425 148 88 30 216 74 285
98 143 50 186 54 241 23z m-13379 -108 c39 -11 117 -41 172 -68 56 -26 131
-61 168 -77 37 -17 68 -35 68 -41 0 -6 -24 -17 -53 -24 -47 -11 -57 -10 -86 5
-18 9 -35 15 -37 12 -2 -2 7 -24 20 -49 76 -143 105 -325 70 -440 -14 -49 -29
-71 -81 -123 -54 -54 -63 -68 -63 -99 0 -45 20 -95 63 -155 18 -25 36 -54 40
-63 3 -10 21 -42 40 -70 103 -162 141 -333 101 -454 -23 -67 -48 -99 -100
-130 -42 -24 -52 -26 -120 -21 -158 12 -345 138 -437 296 -103 174 -111 342
-22 439 l33 37 94 0 c71 -1 106 -6 151 -23 63 -24 71 -18 43 36 -21 41 -35
129 -26 168 8 35 8 35 -44 60 -29 13 -75 48 -104 77 -130 132 -186 305 -167
517 9 100 38 150 109 185 60 30 76 31 168 5z m4869 0 c-24 -21 -91 -28 -91
-10 0 6 15 10 33 10 17 0 39 5 47 10 27 17 36 10 11 -10z m129 -20 c0 -5 -7
-10 -15 -10 -8 0 -15 5 -15 10 0 6 7 10 15 10 8 0 15 -4 15 -10z m2702 -209
c34 -16 89 -41 121 -55 l58 -27 145 50 c141 49 145 50 181 35 45 -19 46 -19
-109 -70 -65 -22 -118 -44 -118 -49 0 -10 208 -105 230 -105 26 0 5 -20 -31
-30 -40 -11 -48 -9 -166 44 -69 31 -132 56 -141 56 -10 0 -75 -21 -147 -46
-130 -45 -169 -50 -202 -23 -10 9 18 22 122 56 74 25 135 49 135 53 0 4 -53
29 -117 57 -116 49 -141 67 -106 76 44 11 85 5 145 -22z m-17 -100 c6 -11 -59
-35 -78 -28 -6 2 3 7 21 11 17 4 32 12 32 17 0 12 17 12 25 0z m-6934 -30 c26
-13 26 -13 35 -185 l9 -171 108 -52 107 -52 0 -51 c0 -27 -2 -50 -4 -50 -2 0
-45 20 -95 45 -50 25 -98 45 -106 45 -18 0 -19 -15 -4 -189 6 -73 9 -135 6
-138 -3 -3 -19 3 -35 12 -26 16 -30 24 -36 84 -3 36 -6 109 -6 161 0 52 -4
100 -8 106 -4 7 -55 35 -114 62 -107 50 -108 51 -108 86 0 19 -3 41 -6 50 -9
24 8 20 107 -29 105 -52 124 -55 116 -22 -5 17 -11 266 -8 300 1 5 4 7 9 5 4
-2 19 -10 33 -17z m6379 0 c0 -21 -80 -79 -119 -86 -60 -10 -50 -25 17 -26
170 -1 313 -42 390 -113 25 -22 25 -22 6 -124 -5 -24 -2 -38 11 -52 17 -19 33
-20 259 -20 244 0 312 -7 421 -44 107 -37 145 -73 145 -139 0 -36 -6 -47 -49
-88 -58 -56 -172 -114 -311 -157 -172 -55 -250 -67 -425 -67 -195 0 -257 15
-318 76 -35 34 -39 43 -33 71 12 61 111 134 269 198 31 13 57 27 57 32 0 4 -1
8 -2 9 -2 0 -23 2 -48 5 -58 7 -129 30 -150 49 -16 14 -22 14 -56 1 -125 -47
-154 -51 -344 -51 -151 0 -196 4 -245 19 -121 37 -195 93 -195 146 0 35 25 88
49 107 45 36 206 107 357 159 93 32 194 68 224 80 59 24 90 29 90 15z m-6463
-68 c-2 -16 -4 -5 -4 22 0 28 2 40 4 28 2 -13 2 -35 0 -50z m3713 -58 c40 -21
38 -43 -6 -61 -38 -16 -64 -12 -89 12 -19 19 -19 29 1 48 20 20 57 20 94 1z
m6139 4 c45 -16 37 -42 -16 -53 -53 -11 -93 -1 -93 22 0 40 45 53 109 31z
m-3166 -6 c-7 -2 -21 -2 -30 0 -10 3 -4 5 12 5 17 0 24 -2 18 -5z m-6682 -103
c5 0 9 -4 9 -10 0 -14 -13 -12 -36 6 -17 14 -17 15 -1 10 10 -3 23 -6 28 -6z
m3709 -76 c0 -8 -7 -14 -15 -14 -15 0 -21 21 -9 33 10 9 24 -2 24 -19z m5743
-528 c36 -14 64 -51 78 -100 6 -18 7 -214 3 -475 l-7 -443 -88 -58 c-49 -32
-94 -60 -101 -62 -10 -4 -14 -69 -18 -284 l-5 -279 -35 -17 c-19 -10 -66 -28
-105 -42 -38 -14 -117 -42 -175 -63 l-105 -39 -7 -828 c-4 -456 -10 -831 -13
-834 -5 -5 -233 -91 -325 -122 -30 -10 -103 -36 -163 -58 -84 -31 -109 -37
-115 -27 -4 8 -3 379 1 825 5 446 7 814 4 816 -3 3 -82 -22 -177 -56 -94 -34
-174 -59 -177 -56 -3 3 -5 93 -4 201 1 107 -1 200 -4 205 -5 8 -11 8 -20 0
-22 -18 -299 -94 -475 -130 -142 -29 -422 -68 -535 -75 -120 -8 -158 -20 -150
-46 4 -11 2 -19 -4 -19 -8 0 -11 75 -11 244 1 135 -2 352 -5 483 -10 331 1
366 145 462 82 55 184 96 500 200 192 64 351 118 480 165 41 16 172 61 290
102 118 40 267 92 330 114 63 23 133 47 155 55 58 19 410 143 475 166 251 91
301 101 363 75z m-5166 -115 c88 -38 180 -78 204 -89 24 -11 184 -79 354 -152
171 -73 344 -148 385 -165 41 -18 93 -40 115 -49 22 -10 54 -23 70 -30 17 -8
181 -78 365 -157 315 -135 338 -147 386 -195 61 -62 116 -167 135 -259 9 -46
43 -2866 35 -2936 -6 -56 -55 -141 -91 -157 -51 -23 -99 -14 -217 42 -119 57
-385 186 -783 381 -132 65 -303 148 -380 185 -190 92 -440 212 -616 298 -125
61 -152 78 -186 119 -53 64 -76 108 -105 189 l-23 69 0 1420 0 1420 22 41 c12
23 36 53 53 68 51 43 92 36 277 -43z m2389 -522 c10 -17 -19 -40 -66 -50 -72
-16 -106 10 -57 44 25 18 112 22 123 6z m75 -2811 c2 -351 0 -640 -4 -644 -4
-4 -10 -4 -14 0 -10 10 -16 1940 -6 1986 10 48 21 -571 24 -1342z m-4986 767
c220 -112 642 -325 937 -474 296 -149 554 -280 575 -292 83 -46 130 -112 170
-237 24 -76 24 -80 23 -492 0 -228 -4 -418 -8 -422 -9 -8 -113 10 -128 23 -21
17 -25 -21 -24 -269 1 -134 -1 -246 -3 -249 -3 -2 -78 34 -168 81 -90 47 -165
86 -168 86 -4 0 5 -768 16 -1227 4 -212 3 -283 -6 -283 -6 0 -73 33 -149 74
-75 41 -180 97 -232 124 l-95 51 -6 218 c-4 120 -10 462 -14 760 l-8 543 -96
49 c-53 27 -119 61 -147 76 l-51 26 -7 187 c-8 219 -15 335 -22 341 -2 2 -4
-23 -4 -57 0 -34 -2 -62 -5 -62 -10 0 -162 95 -297 186 -170 115 -333 236
-462 346 -54 45 -113 93 -131 105 l-33 22 -6 113 c-39 714 -37 755 22 822 24
27 73 46 102 39 14 -3 205 -97 425 -208z m10875 -60 c16 -8 42 -32 57 -52 l28
-36 3 -1336 c2 -971 0 -1352 -9 -1396 -21 -111 -91 -235 -163 -290 -20 -15
-78 -44 -129 -65 -234 -95 -1111 -449 -1731 -699 -376 -152 -403 -158 -474
-122 -47 24 -70 50 -82 90 -5 19 -10 603 -10 1409 l-2 1377 26 70 c44 117 124
217 206 257 19 9 103 42 185 72 493 180 696 255 1035 381 151 56 338 126 415
154 77 28 230 85 340 126 207 76 255 86 305 60z m657 -942 c-2 -32 -3 -8 -3
52 0 61 1 87 3 58 2 -29 2 -78 0 -110z m-1 -570 c-9 -830 -17 -1109 -32 -1088
-9 12 -12 48 -9 129 3 61 9 379 15 706 10 581 17 760 27 760 2 0 2 -228 -1
-507z m-8961 322 c110 -53 228 -110 263 -126 83 -38 207 -98 426 -203 98 -47
180 -86 181 -86 2 0 96 -45 210 -100 114 -55 208 -100 209 -100 2 0 99 -47
217 -104 118 -57 257 -124 310 -148 115 -54 166 -98 214 -184 74 -133 70 -41
70 -1639 l0 -1430 -24 -48 c-13 -27 -38 -58 -55 -69 -60 -38 -84 -29 -606 229
-267 131 -563 277 -658 324 -96 46 -167 85 -159 87 9 2 50 -4 93 -13 194 -40
376 -9 569 96 124 68 209 134 309 240 110 117 193 239 266 392 69 144 99 233
137 400 25 113 27 138 27 342 0 190 -3 234 -22 318 -64 288 -179 505 -363 684
-196 192 -445 285 -721 270 -100 -5 -231 -30 -255 -49 -20 -16 -28 -3 -73 99
-24 54 -55 125 -70 158 -15 33 -49 110 -76 170 -60 136 -94 187 -153 224 -125
80 -278 61 -387 -48 -51 -51 -81 -107 -100 -184 -16 -62 -16 -71 0 -137 10
-39 26 -88 36 -108 31 -59 250 -563 250 -574 0 -5 -9 -19 -21 -31 -43 -45
-132 -191 -186 -303 -62 -131 -85 -199 -129 -374 -16 -67 -16 -70 -4 -70 6 0
10 11 10 24 0 13 6 46 14 72 8 27 22 76 32 109 24 84 85 222 140 318 84 145
174 252 174 207 0 -5 13 -38 29 -72 61 -135 71 -157 71 -162 0 -3 -20 -33 -44
-68 -90 -130 -166 -313 -207 -499 -19 -89 -23 -133 -23 -304 1 -283 25 -391
140 -620 71 -141 147 -241 256 -334 48 -41 86 -76 84 -78 -2 -2 -133 59 -290
137 -333 162 -361 183 -425 313 -31 62 -43 102 -51 162 -8 67 -27 1618 -31
2570 -2 308 2 329 75 391 36 31 46 35 81 31 23 -3 127 -47 240 -102z m5217
-81 c11 -11 29 -37 39 -59 18 -38 19 -103 19 -1443 l0 -1403 -25 -76 c-46
-136 -139 -247 -241 -287 -27 -11 -67 -27 -89 -37 -22 -10 -101 -43 -175 -73
-74 -30 -229 -93 -345 -141 -115 -47 -367 -151 -560 -230 -192 -79 -440 -180
-550 -225 -495 -204 -513 -210 -565 -210 -88 0 -143 41 -161 118 -11 49 9
2805 21 2879 15 93 79 212 144 268 63 53 109 75 406 190 124 48 297 115 385
150 88 35 318 125 510 200 193 75 445 174 560 219 423 167 458 180 494 186 49
8 107 -3 133 -26z m-10266 -171 c8 -33 20 -42 114 -90 38 -20 70 -40 70 -45 0
-4 6 -8 13 -8 6 0 50 -23 96 -50 46 -28 87 -50 90 -50 4 0 40 -21 81 -47 41
-25 94 -55 118 -65 23 -10 42 -23 42 -28 0 -6 4 -10 9 -10 15 0 124 -51 119
-55 -13 -13 -223 84 -240 111 -4 7 -20 15 -35 19 -14 3 -38 15 -51 26 -14 10
-31 19 -39 19 -8 0 -26 11 -41 25 -15 14 -33 23 -39 20 -7 -2 -13 0 -13 4 0 5
-20 17 -45 27 -25 9 -45 20 -45 25 0 4 -35 27 -77 50 -43 24 -89 53 -103 66
-14 13 -29 23 -35 23 -5 0 -10 14 -10 30 0 38 12 39 21 3z m5262 -138 c28 -13
52 -28 52 -32 0 -4 -27 -6 -61 -5 -45 3 -74 -2 -117 -19 -68 -27 -157 -107
-183 -164 l-19 -40 0 45 c0 26 10 66 24 95 59 128 183 177 304 120z m-5168
-35 c0 -5 -2 -10 -4 -10 -3 0 -8 5 -11 10 -3 6 -1 10 4 10 6 0 11 -4 11 -10z
m90 -20 c0 -5 -2 -10 -4 -10 -3 0 -8 5 -11 10 -3 6 -1 10 4 10 6 0 11 -4 11
-10z m5191 -106 c14 -4 99 -168 99 -192 0 -5 -25 -7 -55 -4 -101 8 -199 -32
-272 -111 -22 -24 -47 -60 -54 -80 -7 -21 -16 -37 -19 -37 -4 0 -23 42 -44 94
-35 86 -37 97 -26 130 16 50 97 136 160 170 72 39 140 49 211 30z m-3374 -216
c-2 -24 -4 -7 -4 37 0 44 2 63 4 43 2 -21 2 -57 0 -80z m-1137 17 c0 -9 -13
-7 -45 8 -25 12 -45 24 -45 28 0 3 20 0 45 -9 25 -8 45 -20 45 -27z m150 11
c0 -2 -9 -6 -20 -9 -11 -3 -18 -1 -14 4 5 9 34 13 34 5z m987 -98 c-3 -8 -6
-5 -6 6 -1 11 2 17 5 13 3 -3 4 -12 1 -19z m3529 -40 c6 -7 46 -92 89 -188 42
-96 88 -200 102 -230 14 -30 48 -107 75 -170 27 -63 55 -128 63 -145 52 -117
72 -160 107 -235 37 -80 38 -85 21 -98 -10 -7 -29 -10 -43 -7 -79 19 -103 29
-159 65 -58 38 -65 46 -105 133 -51 106 -68 146 -124 277 -22 52 -54 123 -71
157 -17 34 -31 66 -31 71 0 5 -16 41 -35 81 -19 39 -35 74 -35 76 0 3 -18 44
-40 92 -23 48 -39 92 -36 98 13 36 192 54 222 23z m-3516 -51 c0 -30 2 -116 5
-193 4 -100 2 -131 -5 -109 -5 17 -9 57 -8 90 1 33 -2 106 -7 163 -6 75 -5
102 3 102 8 0 12 -20 12 -53z m3270 -27 c0 -5 48 -116 106 -247 59 -131 124
-278 146 -327 21 -49 48 -110 60 -135 81 -177 99 -265 78 -381 -11 -63 -43
-140 -58 -140 -4 0 -18 26 -31 58 -35 83 -59 137 -97 220 -19 41 -34 75 -34
78 0 2 -16 37 -35 78 -19 41 -35 77 -35 80 0 4 -10 27 -110 246 -26 58 -69
154 -96 213 l-48 109 28 53 c38 74 93 130 112 114 8 -6 14 -15 14 -19z m939
-46 c160 -53 276 -129 399 -258 168 -178 270 -385 329 -666 27 -132 25 -419
-5 -567 -45 -222 -134 -439 -248 -600 -124 -175 -356 -359 -529 -418 -122 -42
-199 -51 -312 -35 -191 27 -365 120 -510 274 -136 144 -213 279 -282 498 -26
81 -43 227 -42 358 1 192 39 378 111 536 44 97 121 225 132 222 5 -2 22 -33
37 -68 16 -36 37 -85 49 -110 11 -25 44 -99 72 -165 29 -66 63 -142 75 -170
13 -27 32 -70 44 -95 12 -27 71 -99 147 -180 117 -124 341 -361 491 -519 l62
-65 43 24 c297 167 474 440 518 802 20 171 -18 386 -96 541 -115 231 -321 394
-557 443 -84 18 -219 20 -296 5 -30 -6 -58 -8 -62 -4 -9 10 -99 214 -99 225 0
14 84 30 185 37 118 7 233 -8 344 -45z m-6274 -174 c61 -34 148 -82 195 -107
47 -26 119 -65 160 -88 71 -40 231 -127 400 -218 41 -22 107 -58 145 -80 39
-22 108 -60 155 -85 47 -25 101 -55 120 -67 19 -12 122 -68 229 -126 110 -59
209 -119 229 -139 42 -43 96 -148 115 -226 16 -60 21 -223 32 -884 6 -323 19
-968 31 -1465 7 -269 6 -282 -14 -327 -45 -103 -80 -95 -362 77 -124 76 -337
206 -475 290 -137 83 -297 181 -355 217 -135 83 -440 270 -552 337 -99 60
-146 109 -189 198 -41 87 -47 126 -58 439 -6 153 -13 326 -16 384 -3 58 -7
215 -10 350 -3 135 -8 279 -10 320 -2 41 -9 219 -15 395 -6 176 -15 409 -20
518 -10 232 -2 283 51 330 44 40 78 33 214 -43z m1615 15 c0 -8 -4 -15 -10
-15 -5 0 -10 7 -10 15 0 8 5 15 10 15 6 0 10 -7 10 -15z m14731 -121 c54 -48
51 33 50 -1440 l0 -1364 -25 -70 c-29 -85 -76 -160 -126 -203 -21 -18 -100
-60 -176 -94 -77 -34 -526 -233 -999 -443 -671 -299 -869 -383 -901 -383 -95
-1 -142 49 -149 159 -11 164 -13 2669 -3 2728 11 64 53 166 88 216 35 49 106
100 182 132 40 16 188 76 328 133 419 169 525 213 735 300 110 46 297 122 415
169 118 48 224 91 235 96 11 5 65 28 120 50 113 46 186 51 226 14z m-10131
-14 c270 -92 459 -293 545 -580 99 -330 7 -705 -231 -945 -61 -62 -184 -154
-227 -171 -19 -7 -23 12 -37 176 -5 63 -16 187 -25 275 -8 88 -20 205 -25 260
-24 255 -30 292 -48 330 -11 22 -26 56 -35 75 -8 19 -29 66 -46 103 -17 38
-31 70 -31 73 0 2 -40 94 -90 204 -49 110 -90 207 -90 216 0 26 252 14 340
-16z m-4129 -104 c-4 -17 -5 -17 -13 -1 -6 10 -7 36 -2 63 l8 47 6 -45 c3 -25
3 -53 1 -64z m3809 -588 c33 -16 65 -22 118 -22 39 -1 72 -3 72 -6 0 -3 5 -39
10 -80 6 -41 14 -120 20 -175 14 -147 30 -276 36 -302 5 -19 2 -23 -19 -23
-14 0 -35 -11 -48 -24 l-23 -24 -61 67 c-33 36 -114 123 -178 193 l-117 126
26 53 c34 67 53 148 54 228 l0 64 33 -27 c17 -15 52 -36 77 -48z m-3620 -327
c19 -10 134 -73 255 -142 121 -69 344 -194 495 -279 151 -84 331 -185 400
-224 69 -39 141 -80 161 -91 560 -311 587 -331 647 -443 56 -105 60 -141 72
-602 22 -835 48 -1652 66 -2076 7 -148 6 -152 -19 -207 -21 -47 -31 -57 -61
-66 -49 -13 -76 -4 -203 70 -60 34 -245 140 -413 237 -168 96 -330 189 -360
207 -84 50 -190 110 -240 137 -25 14 -137 78 -250 143 -113 65 -276 159 -363
209 -86 50 -171 104 -188 121 -47 44 -95 122 -120 195 -21 61 -23 93 -35 560
-18 687 -37 1649 -38 1930 -1 216 1 238 19 275 23 46 75 78 114 68 15 -3 42
-13 61 -22z m11140 -216 c16 -8 39 -29 52 -47 22 -31 23 -42 23 -183 l0 -150
-55 -27 c-30 -15 -86 -41 -125 -57 -38 -17 -122 -53 -185 -81 -63 -28 -173
-76 -245 -107 -71 -30 -163 -71 -203 -89 -41 -19 -76 -34 -78 -34 -3 0 -31
-12 -61 -26 -85 -38 -292 -124 -300 -124 -6 0 -235 -97 -328 -139 -11 -5 -58
-25 -105 -45 -96 -40 -162 -69 -203 -91 -21 -11 -29 -12 -32 -2 -2 6 -5 99 -8
204 -2 106 -6 196 -10 199 -4 4 -37 -7 -74 -23 -38 -17 -124 -54 -193 -84
-148 -63 -186 -86 -231 -142 -96 -118 -139 -230 -139 -362 0 -54 -4 -84 -10
-80 -13 8 -12 185 2 250 26 129 124 271 220 318 67 34 327 147 337 147 4 0 25
8 47 19 41 19 344 149 569 244 72 30 182 77 245 105 63 27 187 80 275 117 88
37 210 89 270 115 136 59 333 142 400 169 60 24 106 26 145 6z m-560 -1335 c0
-88 2 -160 4 -160 3 0 59 25 126 55 67 30 123 55 126 55 2 0 4 -22 4 -48 l0
-48 -52 -23 c-29 -13 -88 -39 -130 -58 l-78 -36 0 -162 0 -161 -36 -18 c-20
-9 -39 -15 -42 -12 -3 3 -4 71 -3 151 1 80 0 149 -4 154 -5 9 -41 -4 -183 -70
-35 -16 -68 -29 -73 -29 -5 0 -9 22 -9 48 l0 48 93 39 c50 21 110 48 132 59
l39 21 -3 145 c-1 80 1 153 5 164 6 16 54 44 77 46 4 0 7 -72 7 -160z m-7681
19 c108 -56 205 -107 216 -114 11 -7 70 -38 130 -70 223 -117 302 -158 380
-200 44 -24 139 -73 210 -110 72 -37 157 -82 190 -100 33 -17 121 -64 195
-103 74 -39 173 -91 220 -116 47 -25 132 -69 189 -98 160 -82 217 -141 278
-289 26 -64 26 -64 34 -479 8 -387 17 -780 39 -1645 5 -192 9 -442 10 -554 0
-189 -1 -206 -21 -241 -12 -21 -32 -44 -45 -50 -41 -22 -112 -7 -199 42 -44
25 -109 61 -145 80 -105 57 -642 352 -945 520 -154 85 -311 172 -350 193 -38
21 -99 54 -135 75 -36 20 -103 58 -150 82 -47 25 -121 65 -165 89 -98 52 -173
126 -214 211 -60 124 -59 97 -70 1153 -6 534 -12 1137 -14 1340 l-2 370 24 42
c26 45 69 72 115 73 17 0 107 -40 225 -101z m5121 16 c55 -29 55 -24 60 -525
4 -403 3 -466 -10 -481 -48 -55 -645 -429 -603 -378 31 38 45 131 41 273 -3
137 -4 144 -37 211 -66 136 -147 185 -308 185 -51 0 -93 -3 -93 -7 0 -5 46 -8
103 -9 88 0 110 -4 152 -25 59 -29 115 -98 140 -173 33 -101 29 -299 -9 -423
-22 -74 -121 -246 -183 -318 -34 -40 -60 -75 -57 -78 2 -2 25 0 49 6 61 14
140 -5 207 -49 88 -58 118 -120 138 -278 17 -129 -2 -277 -52 -424 -22 -67
-107 -222 -155 -285 -167 -220 -311 -318 -703 -482 -102 -42 -269 -113 -372
-156 -103 -44 -191 -79 -196 -79 -4 0 -24 -11 -45 -25 -20 -14 -41 -24 -46
-21 -4 3 -11 352 -14 777 -4 424 -8 773 -9 774 -2 2 -46 -8 -98 -20 -96 -23
-211 -44 -350 -65 -41 -7 -97 -16 -124 -21 -27 -5 -50 -8 -52 -6 -1 1 -4 198
-5 437 -1 422 -1 437 20 491 12 31 38 80 59 109 61 88 120 128 292 198 85 35
191 78 235 97 44 18 170 69 280 114 110 45 220 91 245 101 100 43 764 317
1040 430 96 39 211 87 255 105 89 38 157 45 205 20z m2120 -51 c0 -4 -25 -34
-56 -68 -38 -41 -73 -68 -107 -82 -56 -24 -68 -39 -38 -49 24 -7 67 -62 88
-113 12 -29 14 -59 10 -137 -6 -123 -29 -182 -134 -341 -73 -112 -90 -154 -79
-196 6 -24 58 -63 98 -73 13 -4 48 -23 78 -43 111 -74 137 -189 81 -361 -64
-201 -245 -399 -456 -501 -116 -56 -161 -70 -245 -76 -65 -5 -81 -3 -119 18
-25 13 -53 35 -64 49 -60 83 -30 261 69 405 72 105 281 277 392 323 38 16 40
27 10 59 -20 21 -23 34 -23 103 1 43 1 79 0 79 0 0 -27 -11 -60 -25 -43 -17
-79 -25 -126 -25 -83 0 -122 24 -161 99 -24 46 -28 65 -28 138 0 143 45 268
145 400 105 140 203 201 595 370 19 8 51 23 70 34 35 19 60 24 60 13z m-170
-18 c0 -2 -7 -7 -16 -10 -8 -3 -12 -2 -9 4 6 10 25 14 25 6z m490 -125 c0 -5
-7 -12 -16 -15 -24 -9 -28 -7 -14 9 14 17 30 20 30 6z m-60 -35 c-8 -8 -28
-17 -45 -20 -30 -6 -30 -5 3 6 17 6 32 15 32 19 0 5 5 9 12 9 9 0 8 -4 -2 -14z
m-1756 -283 c6 -259 5 -283 -10 -283 -12 0 -15 6 -10 23 3 12 6 141 6 286 0
145 2 262 4 260 2 -2 6 -131 10 -286z m616 -168 c0 -8 -4 -15 -10 -15 -5 0 -7
7 -4 15 4 8 8 15 10 15 2 0 4 -7 4 -15z m-1205 -2240 c-13 -75 -47 -152 -70
-162 -8 -3 -15 -11 -15 -19 0 -8 -4 -14 -10 -14 -5 0 -10 -6 -10 -14 0 -23
-65 -67 -157 -106 -49 -20 -101 -43 -118 -50 -45 -19 -87 -37 -115 -48 -35
-14 -398 -167 -494 -208 -44 -19 -85 -34 -93 -34 -7 0 -13 -4 -13 -10 0 -5 -7
-10 -16 -10 -14 0 -48 -14 -141 -57 -17 -8 -37 -16 -45 -17 -7 -2 -43 -17 -80
-35 -37 -17 -72 -31 -77 -31 -5 0 -31 -11 -58 -24 -79 -38 -221 -96 -237 -96
-8 0 -16 -4 -18 -9 -1 -4 -46 -25 -98 -46 -52 -21 -135 -55 -185 -77 -108 -47
-134 -58 -160 -68 -20 -8 -64 -28 -169 -74 -65 -29 -75 -30 -128 -15 -48 13
-48 23 -1 27 40 3 62 16 44 26 -6 4 -11 2 -11 -3 0 -6 -10 -11 -21 -11 -18 0
-20 5 -16 27 3 15 3 33 0 41 -9 23 -22 -8 -16 -39 4 -21 1 -27 -18 -32 -28 -7
-75 19 -85 47 -4 12 -9 287 -10 611 -1 555 4 601 20 175 6 -162 12 -314 22
-540 2 -63 4 -130 4 -149 -1 -43 9 -91 19 -91 13 0 46 76 42 99 -2 9 5 12 21
8 80 -18 88 -19 88 -3 0 10 9 16 23 16 13 0 32 9 42 21 16 16 26 19 57 14 34
-6 38 -5 38 14 0 18 6 21 40 21 35 0 40 3 40 24 0 21 6 25 48 30 110 16 152
29 152 48 0 12 7 18 23 18 12 0 31 9 41 21 13 16 25 20 47 15 21 -4 31 -1 35
9 4 8 17 15 30 15 13 0 24 5 24 10 0 14 37 13 42 -1 2 -7 17 -8 41 -4 32 6 37
11 37 35 0 25 4 29 40 35 42 7 53 20 23 28 -10 2 -6 3 10 1 40 -5 87 7 87 21
0 7 17 16 38 20 21 3 50 17 65 31 27 24 57 32 57 14 0 -5 9 -10 20 -10 13 0
20 7 20 20 0 13 7 20 20 20 11 0 20 5 20 10 0 6 18 10 40 10 28 0 40 4 40 14
0 9 15 17 39 21 22 4 42 13 45 20 3 8 21 17 40 21 20 3 36 10 36 15 0 5 9 9
20 9 11 0 20 6 20 13 0 9 12 11 40 9 25 -3 40 0 40 7 0 6 17 11 40 11 33 0 40
3 40 20 0 13 7 20 20 20 11 0 20 5 20 10 0 6 9 10 20 10 11 0 20 4 20 9 0 4
27 14 60 21 33 7 60 17 60 22 0 6 14 8 33 4 17 -3 46 -1 62 4 26 8 24 9 -13 4
l-43 -6 26 26 c22 22 32 26 61 20 30 -5 34 -4 34 15 0 18 6 21 40 21 33 0 40
4 40 19 0 14 10 21 35 25 20 4 40 4 45 1 6 -3 10 -1 10 4 0 6 7 11 15 11 8 0
15 6 15 14 0 14 42 26 91 26 23 0 29 5 29 21 0 14 5 19 18 17 12 -2 16 -11 14
-31 -2 -15 1 -27 7 -27 6 0 11 9 11 19 0 23 23 34 39 18 19 -19 30 4 35 70 4
65 13 90 26 76 4 -4 2 -39 -5 -78z m-643 3 c-7 -7 -12 -8 -12 -2 0 14 12 26
19 19 2 -3 -1 -11 -7 -17z m-41 -49 c-12 -13 -21 -19 -21 -14 0 11 32 46 38
41 2 -3 -5 -15 -17 -27z m649 1 c0 -11 -4 -20 -10 -20 -5 0 -10 9 -10 20 0 11
5 20 10 20 6 0 10 -9 10 -20z m-680 -34 c0 -7 -9 -16 -21 -19 -20 -5 -20 -5
-3 14 20 23 24 23 24 5z m-150 -125 c0 -11 -31 -24 -39 -16 -3 3 1 10 9 15 19
12 30 12 30 1z m-90 -61 c-20 -13 -33 -13 -25 0 3 6 14 10 23 10 15 0 15 -2 2
-10z m-85 -43 c-72 -41 -229 -115 -272 -129 -24 -7 -43 -16 -43 -20 0 -5 -8
-8 -18 -8 -10 0 -27 -7 -38 -15 -10 -8 -27 -15 -37 -15 -10 0 -61 -20 -113
-45 -51 -25 -100 -45 -108 -45 -8 0 -18 -4 -21 -10 -3 -5 -17 -10 -29 -10 -13
0 -29 -7 -36 -15 -7 -8 -17 -15 -23 -15 -6 0 -18 -7 -28 -16 -11 -10 -25 -13
-40 -9 -19 6 -15 11 38 39 32 17 79 37 103 45 25 7 54 18 65 25 11 7 44 21 73
30 28 10 52 21 52 25 0 4 6 8 13 8 6 0 35 10 62 22 28 12 59 26 70 30 11 5 37
16 58 25 21 9 44 16 52 16 8 0 15 3 15 8 0 8 90 42 113 42 9 0 20 6 24 14 11
18 63 45 88 45 14 1 8 -6 -20 -22z m2 -113 c-3 -3 -12 -4 -19 -1 -8 3 -5 6 6
6 11 1 17 -2 13 -5z m-849 -251 c-9 -9 -30 -17 -45 -19 -27 -3 -27 -2 7 16 45
23 59 24 38 3z m-88 -28 c0 -9 -6 -12 -15 -9 -8 4 -15 10 -15 15 0 5 7 9 15 9
8 0 15 -7 15 -15z m268 -32 c2 -8 -5 -13 -17 -13 -12 0 -21 6 -21 16 0 18 31
15 38 -3z"/>
<path d="M11330 18354 c0 -8 5 -12 10 -9 6 4 8 11 5 16 -9 14 -15 11 -15 -7z"/>
<path d="M11331 18284 c0 -11 3 -14 6 -6 3 7 2 16 -1 19 -3 4 -6 -2 -5 -13z"/>
<path d="M11550 18260 c8 -5 24 -10 34 -10 26 0 18 6 -19 14 -22 5 -26 4 -15
-4z"/>
<path d="M11326 18225 c-3 -8 -1 -15 4 -15 6 0 10 7 10 15 0 8 -2 15 -4 15 -2
0 -6 -7 -10 -15z"/>
<path d="M11292 17888 c5 -15 28 -23 28 -10 0 5 -7 13 -16 16 -10 4 -14 1 -12
-6z"/>
<path d="M11110 17880 c0 -5 4 -10 9 -10 6 0 13 5 16 10 3 6 -1 10 -9 10 -9 0
-16 -4 -16 -10z"/>
<path d="M11650 17831 c8 -6 33 -16 55 -22 22 -5 48 -13 59 -16 11 -3 16 -1
12 5 -3 5 -23 13 -43 17 -49 11 -54 12 -78 20 -16 6 -17 5 -5 -4z"/>
<path d="M11193 17783 c9 -2 23 -2 30 0 6 3 -1 5 -18 5 -16 0 -22 -2 -12 -5z"/>
<path d="M12398 17783 c6 -2 18 -2 25 0 6 3 1 5 -13 5 -14 0 -19 -2 -12 -5z"/>
<path d="M12358 17773 c7 -3 16 -2 19 1 4 3 -2 6 -13 5 -11 0 -14 -3 -6 -6z"/>
<path d="M12273 17760 c-32 -13 -28 -21 5 -10 15 5 36 11 47 13 16 4 15 5 -5
5 -14 0 -35 -3 -47 -8z"/>
<path d="M12518 17743 c6 -2 18 -2 25 0 6 3 1 5 -13 5 -14 0 -19 -2 -12 -5z"/>
<path d="M12405 17729 c-22 -5 -44 -14 -49 -19 -13 -13 -3 -12 79 10 72 19 47
27 -30 9z"/>
<path d="M11320 17716 c0 -2 7 -7 16 -10 8 -3 12 -2 9 4 -6 10 -25 14 -25 6z"/>
<path d="M11370 17700 c0 -4 11 -10 25 -12 13 -3 22 -2 20 2 -7 11 -45 20 -45
10z"/>
<path d="M12540 17690 c-99 -24 -60 -24 55 -1 53 11 76 19 55 19 -19 0 -69 -8
-110 -18z"/>
<path d="M11980 17650 c0 -5 10 -10 23 -10 18 0 19 2 7 10 -19 13 -30 13 -30
0z"/>
<path d="M12655 17649 c-11 -4 -36 -12 -55 -17 l-35 -10 40 2 c22 2 51 7 65
13 14 6 43 11 64 11 21 1 41 4 45 7 8 9 -100 3 -124 -6z"/>
<path d="M11845 17600 c-18 -8 -17 -9 8 -9 15 -1 27 4 27 9 0 12 -8 12 -35 0z"/>
<path d="M8458 17343 c7 -3 16 -2 19 1 4 3 -2 6 -13 5 -11 0 -14 -3 -6 -6z"/>
<path d="M8498 17343 c6 -2 18 -2 25 0 6 3 1 5 -13 5 -14 0 -19 -2 -12 -5z"/>
<path d="M8558 17343 c7 -3 16 -2 19 1 4 3 -2 6 -13 5 -11 0 -14 -3 -6 -6z"/>
<path d="M8748 17343 c12 -2 32 -2 45 0 12 2 2 4 -23 4 -25 0 -35 -2 -22 -4z"/>
<path d="M8188 17293 c6 -2 18 -2 25 0 6 3 1 5 -13 5 -14 0 -19 -2 -12 -5z"/>
<path d="M8095 17270 c-25 -11 1 -11 35 0 20 6 21 8 5 8 -11 0 -29 -3 -40 -8z"/>
<path d="M8018 17243 c6 -2 18 -2 25 0 6 3 1 5 -13 5 -14 0 -19 -2 -12 -5z"/>
<path d="M7918 17213 c7 -3 16 -2 19 1 4 3 -2 6 -13 5 -11 0 -14 -3 -6 -6z"/>
<path d="M7508 17073 c7 -3 16 -2 19 1 4 3 -2 6 -13 5 -11 0 -14 -3 -6 -6z"/>
<path d="M7468 17063 c7 -3 16 -2 19 1 4 3 -2 6 -13 5 -11 0 -14 -3 -6 -6z"/>
<path d="M8285 17054 c-36 -8 -190 -55 -206 -64 -9 -5 -33 -12 -53 -15 -20 -4
-38 -10 -40 -14 -3 -4 25 -20 62 -36 181 -78 209 -91 249 -116 20 -12 35 -9
140 25 187 61 243 93 243 137 0 19 -71 65 -116 74 -28 5 -28 5 -4 -6 14 -6 32
-15 40 -20 8 -5 22 -12 30 -16 8 -4 21 -13 29 -21 13 -12 11 -17 -10 -33 -33
-25 -253 -100 -311 -107 -27 -2 -54 0 -60 6 -7 5 -58 29 -113 52 -117 49 -126
56 -94 69 44 18 193 63 254 76 54 12 56 13 20 13 -22 0 -49 -2 -60 -4z"/>
<path d="M7145 16880 c27 -12 43 -12 25 0 -8 5 -22 9 -30 9 -10 0 -8 -3 5 -9z"/>
<path d="M7210 16853 c8 -3 24 -10 35 -15 20 -9 20 -9 1 6 -11 9 -27 16 -35
15 -14 0 -14 -1 -1 -6z"/>
<path d="M7280 16826 c0 -2 7 -7 16 -10 8 -3 12 -2 9 4 -6 10 -25 14 -25 6z"/>
<path d="M9055 16801 c-44 -10 -154 -44 -244 -75 -90 -31 -165 -56 -167 -56
-2 0 -4 -3 -4 -7 0 -5 21 -17 48 -27 26 -11 70 -29 97 -41 28 -13 88 -39 135
-60 47 -20 100 -43 118 -52 31 -14 38 -13 95 10 34 14 96 37 137 52 188 66
260 109 260 154 0 27 -55 67 -126 91 -87 30 -246 35 -349 11z"/>
<path d="M7360 16790 c0 -5 5 -10 11 -10 5 0 7 5 4 10 -3 6 -8 10 -11 10 -2 0
-4 -4 -4 -10z"/>
<path d="M7408 16768 c5 -5 16 -8 23 -6 8 3 3 7 -10 11 -17 4 -21 3 -13 -5z"/>
<path d="M7488 16733 c7 -3 16 -2 19 1 4 3 -2 6 -13 5 -11 0 -14 -3 -6 -6z"/>
<path d="M7520 16721 c0 -8 41 -23 47 -17 2 1 -8 8 -22 14 -14 6 -25 8 -25 3z"/>
<path d="M7581 16686 c2 -2 18 -6 34 -10 22 -5 26 -4 15 4 -14 9 -59 15 -49 6z"/>
<path d="M14680 17344 c-142 -22 -212 -35 -270 -52 -258 -73 -432 -161 -568
-287 l-63 -58 -102 6 c-56 4 -165 11 -242 18 -197 16 -302 9 -394 -27 -194
-76 -242 -219 -94 -282 53 -22 91 -27 333 -42 213 -14 357 -27 368 -34 5 -3
12 -24 16 -47 10 -63 60 -152 122 -216 l56 -58 -43 55 c-25 30 -56 78 -70 105
-29 54 -53 141 -44 155 5 9 145 3 220 -9 33 -5 40 -11 45 -36 29 -139 216
-296 446 -375 234 -81 510 -106 769 -71 189 25 318 58 442 112 231 101 349
209 409 373 42 117 28 244 -40 361 -54 91 -214 223 -336 276 -45 20 -58 26
-115 49 -53 21 -209 59 -316 76 -134 21 -417 25 -529 8z m475 -49 c320 -39
559 -145 721 -316 150 -160 152 -372 3 -546 -92 -109 -340 -233 -544 -273 -33
-6 -76 -15 -95 -20 -87 -21 -404 -30 -524 -15 -347 44 -605 177 -706 366 -18
35 -28 65 -23 70 5 5 58 4 123 -1 479 -39 513 -40 641 -25 68 9 167 20 219 26
52 5 111 12 130 15 19 2 69 8 110 13 41 6 104 14 140 20 36 5 100 12 143 16
42 4 77 10 77 14 0 5 -26 16 -57 26 -71 21 -291 89 -393 120 -301 94 -247 85
-671 115 -79 6 -183 13 -231 17 -49 3 -88 9 -88 14 0 10 145 101 210 132 295
138 694 162 984 61 91 -31 150 -66 210 -123 92 -87 117 -187 76 -305 -23 -67
-7 -73 25 -10 15 30 20 59 20 124 0 75 -3 91 -27 131 -198 337 -993 375 -1444
69 -27 -18 -60 -45 -74 -58 -25 -24 -27 -24 -140 -18 -63 4 -117 10 -120 12
-3 3 13 21 35 40 284 244 795 368 1270 309z m-1625 -384 c0 -4 -17 -17 -39
-29 -51 -29 -107 -92 -116 -131 -5 -22 -2 -39 9 -56 19 -29 23 -28 -79 -26
-71 2 -82 5 -102 27 -41 46 -24 106 48 167 65 56 85 62 187 59 51 -2 92 -7 92
-11z m-359 -9 c-86 -60 -130 -140 -102 -183 23 -38 5 -39 -38 -3 -23 19 -31
34 -31 59 0 44 29 76 105 114 66 34 106 41 66 13z m778 -17 c113 -8 260 -19
326 -25 66 -5 187 -13 268 -16 81 -4 150 -11 153 -15 15 -25 -160 -89 -265
-97 -41 -2 -131 0 -200 7 -69 6 -232 18 -361 27 -129 8 -264 19 -300 22 l-65
7 30 29 c88 84 93 84 414 61z m946 -97 c55 -16 114 -33 130 -38 112 -31 185
-56 185 -62 0 -5 -5 -8 -10 -8 -6 0 -15 -11 -20 -24 -8 -21 -16 -24 -97 -31
-102 -9 -109 -10 -223 -24 -213 -25 -192 -27 -216 12 -13 20 -44 45 -78 63
-30 16 -52 32 -48 35 4 3 29 12 56 18 57 14 156 62 176 86 8 9 20 13 29 9 9
-3 61 -19 116 -36z m-1205 -39 c80 -5 201 -14 270 -19 69 -5 195 -14 280 -20
181 -13 271 -36 327 -85 21 -18 35 -36 31 -40 -6 -6 -165 4 -763 50 -104 8
-216 15 -247 15 -49 0 -59 3 -77 26 -21 26 -28 64 -14 77 8 9 20 9 193 -4z"/>
<path d="M10328 16473 c7 -3 16 -2 19 1 4 3 -2 6 -13 5 -11 0 -14 -3 -6 -6z"/>
<path d="M10288 16453 c6 -2 18 -2 25 0 6 3 1 5 -13 5 -14 0 -19 -2 -12 -5z"/>
<path d="M10208 16423 c6 -2 18 -2 25 0 6 3 1 5 -13 5 -14 0 -19 -2 -12 -5z"/>
<path d="M9968 16383 c6 -2 18 -2 25 0 6 3 1 5 -13 5 -14 0 -19 -2 -12 -5z"/>
<path d="M10080 16369 c0 -5 5 -7 10 -4 6 3 10 8 10 11 0 2 -4 4 -10 4 -5 0
-10 -5 -10 -11z"/>
<path d="M9608 16213 c6 -2 18 -2 25 0 6 3 1 5 -13 5 -14 0 -19 -2 -12 -5z"/>
<path d="M9368 16143 c6 -2 18 -2 25 0 6 3 1 5 -13 5 -14 0 -19 -2 -12 -5z"/>
<path d="M9308 16103 c6 -2 18 -2 25 0 6 3 1 5 -13 5 -14 0 -19 -2 -12 -5z"/>
<path d="M6451 15504 c0 -11 3 -14 6 -6 3 7 2 16 -1 19 -3 4 -6 -2 -5 -13z"/>
<path d="M6512 15480 c0 -14 2 -19 5 -12 2 6 2 18 0 25 -3 6 -5 1 -5 -13z"/>
<path d="M6466 15447 c3 -10 9 -15 12 -12 3 3 0 11 -7 18 -10 9 -11 8 -5 -6z"/>
<path d="M6521 15434 c0 -11 3 -14 6 -6 3 7 2 16 -1 19 -3 4 -6 -2 -5 -13z"/>
<path d="M6476 15374 c2 -25 7 -51 11 -57 8 -13 9 -17 17 -82 2 -22 10 -60 16
-85 6 -25 15 -162 18 -305 4 -143 11 -266 16 -273 13 -21 98 -54 109 -43 9 9
6 91 -11 326 -6 78 -7 149 -1 180 5 27 12 75 15 105 3 30 9 66 14 80 5 14 11
50 14 80 l6 55 -20 -25 c-11 -14 -20 -34 -21 -45 0 -14 -2 -15 -6 -5 -2 8 -8
24 -13 35 -5 11 -12 34 -16 50 -7 29 -8 28 -16 -20 -13 -76 -16 -81 -32 -59
-8 10 -12 22 -10 26 3 4 -4 24 -15 45 -15 28 -20 33 -21 18 0 -11 -5 -27 -10
-35 -7 -12 -9 -11 -8 5 1 26 -19 75 -31 75 -5 0 -8 -20 -5 -46z"/>
<path d="M6890 15250 c0 -5 7 -10 16 -10 8 0 12 5 9 10 -3 6 -10 10 -16 10 -5
0 -9 -4 -9 -10z"/>
<path d="M6855 15217 c-8 -12 -15 -38 -15 -57 0 -20 -4 -40 -8 -45 -4 -6 -5
-127 -1 -269 7 -260 10 -282 50 -358 5 -10 9 -24 9 -31 0 -26 85 -104 133
-122 56 -21 82 -13 113 38 16 28 19 49 17 152 -4 178 -21 434 -34 491 -5 27
-13 63 -16 79 -6 35 -28 55 -57 54 -17 -1 -18 -2 -3 -6 9 -2 17 -11 17 -19 0
-13 -5 -12 -30 3 -16 9 -30 21 -30 24 0 4 -24 15 -52 23 -62 19 -93 36 -65 36
21 0 23 16 2 24 -8 3 -21 -4 -30 -17z m123 -88 c18 -6 29 -15 26 -21 -3 -5 1
-15 9 -21 21 -17 28 -82 33 -314 6 -254 -6 -311 -56 -270 -34 27 -49 109 -61
334 -10 174 -10 232 0 263 6 22 13 40 15 40 2 0 17 -5 34 -11z"/>
<path d="M7025 15185 c32 -27 45 -31 45 -15 0 9 -52 40 -67 40 -4 -1 6 -12 22
-25z"/>
<path d="M7251 15017 c0 -45 4 -230 8 -412 9 -380 10 -382 95 -423 43 -21 49
-22 59 -8 7 9 23 17 37 18 22 3 25 -1 28 -30 3 -28 10 -36 52 -57 27 -14 52
-25 55 -25 11 0 6 137 -28 694 -9 145 -15 190 -26 194 -10 3 -12 -2 -8 -19 10
-39 -7 -55 -26 -25 -21 31 -22 50 -2 42 8 -3 15 -3 15 1 0 6 -32 32 -40 33 -3
0 -4 -141 -2 -313 3 -285 2 -317 -15 -355 -10 -23 -21 -42 -26 -42 -4 0 -18
11 -31 24 -27 26 -26 23 -46 396 -6 113 -13 239 -16 280 l-6 75 -39 17 -39 17
1 -82z m54 43 c4 -6 3 -30 -1 -53 l-7 -42 -9 30 c-15 51 -16 75 -2 75 7 0 16
-5 19 -10z"/>
<path d="M6445 14438 c-40 -21 -74 -69 -79 -111 -14 -114 -15 -225 -6 -482 17
-480 43 -615 142 -732 39 -47 73 -70 215 -150 184 -103 623 -323 644 -323 8 0
43 -16 79 -35 35 -19 69 -35 76 -35 7 0 52 -18 100 -41 67 -30 97 -39 120 -35
38 8 72 38 80 74 3 15 10 36 15 47 13 30 20 451 9 600 -12 175 -38 401 -51
450 -18 66 -68 155 -112 200 -23 23 -74 59 -112 79 -39 21 -99 53 -135 73
-126 69 -295 151 -550 267 -69 32 -149 68 -178 82 -29 13 -58 24 -64 24 -6 0
-39 11 -72 24 -87 34 -99 36 -121 24z m177 -245 c102 -49 140 -72 143 -88 11
-56 13 -115 5 -120 -5 -3 -27 4 -50 15 -37 19 -40 19 -41 3 -2 -45 2 -181 12
-466 7 -169 9 -310 6 -313 -3 -4 -26 3 -51 15 l-44 22 -6 102 c-8 144 -26 603
-26 659 0 46 -1 47 -52 75 l-53 28 -3 68 c-2 47 1 67 9 67 7 0 75 -30 151 -67z
m873 -264 c110 -55 120 -61 158 -97 72 -68 104 -140 113 -249 6 -77 -3 -92
-27 -45 -16 33 -26 45 -78 100 -23 23 -41 47 -41 52 0 6 -8 18 -17 28 -44 46
-83 92 -83 99 -1 13 -103 122 -135 144 l-30 21 30 -7 c17 -3 66 -24 110 -46z
m-334 7 c44 -30 49 -51 49 -192 0 -93 2 -104 18 -104 10 0 23 5 28 10 22 22
64 -12 96 -73 l29 -59 12 -279 c10 -254 9 -282 -6 -314 -9 -19 -23 -35 -31
-35 -26 0 -82 39 -94 65 -10 21 -15 23 -30 14 -14 -9 -25 -7 -52 8 -34 19 -35
22 -42 99 -11 121 -38 865 -32 875 8 14 16 11 55 -15z m-328 -77 c44 -20 47
-38 58 -321 13 -316 19 -347 62 -300 16 17 16 40 6 274 -7 141 -9 263 -6 273
6 15 9 15 38 -2 55 -32 57 -40 68 -303 18 -423 18 -434 1 -437 -28 -6 -78 34
-85 67 -6 29 -8 30 -24 16 -22 -20 -60 -20 -89 0 -31 21 -51 75 -57 153 -9
108 -24 575 -19 583 7 11 19 10 47 -3z m746 -349 c42 -21 93 -90 111 -149 6
-20 15 -45 20 -56 13 -31 23 -255 11 -255 -6 0 -43 16 -82 35 -40 19 -77 35
-82 35 -11 0 -1 -158 12 -193 9 -22 29 -37 52 -37 5 0 9 27 9 60 0 35 4 60 10
60 6 0 28 -9 49 -20 38 -19 39 -21 43 -82 6 -100 -24 -158 -82 -158 -65 0
-154 97 -178 193 -7 26 -17 140 -23 253 -9 182 -8 212 6 255 9 27 25 54 36 59
10 6 19 7 19 3 0 -4 5 -2 12 5 15 15 12 16 57 -8z"/>
<path d="M7225 13530 c-10 -16 5 -399 16 -437 11 -35 37 -51 51 -31 6 7 7 100
4 212 -5 165 -9 204 -24 229 -19 34 -37 44 -47 27z"/>
<path d="M7550 13355 c-18 -49 -12 -92 16 -114 15 -12 35 -21 45 -21 16 0 17
6 13 53 -9 82 -55 133 -74 82z"/>
<path d="M4059 16070 c-53 -31 -76 -146 -54 -269 13 -69 21 -100 55 -214 24
-82 98 -185 152 -213 59 -31 120 -1 139 69 36 132 -67 494 -168 589 -44 42
-92 57 -124 38z"/>
<path d="M4034 15015 c-64 -33 -84 -108 -59 -221 39 -178 202 -350 362 -384
96 -21 143 30 143 152 0 113 -47 219 -164 372 -55 72 -212 117 -282 81z"/>
<path d="M10840 15571 c-90 -16 -150 -55 -150 -98 0 -17 13 -32 53 -56 59 -37
123 -58 248 -83 101 -19 310 -15 372 7 45 17 97 64 97 88 0 38 -69 77 -185
105 -38 9 -83 21 -100 27 -39 13 -278 20 -335 10z m-20 -141 c0 -5 -7 -10 -16
-10 -8 0 -12 5 -9 10 3 6 10 10 16 10 5 0 9 -4 9 -10z"/>
<path d="M11780 15241 c-115 -16 -285 -99 -321 -157 -30 -50 -16 -77 59 -112
52 -24 70 -27 197 -30 158 -5 237 6 368 49 161 53 217 92 217 150 0 32 -21 51
-85 79 -43 19 -72 22 -215 25 -91 2 -190 0 -220 -4z"/>
<path d="M14055 14170 c-3 -6 1 -7 9 -4 18 7 21 14 7 14 -6 0 -13 -4 -16 -10z"/>
<path d="M13838 14073 c7 -3 16 -2 19 1 4 3 -2 6 -13 5 -11 0 -14 -3 -6 -6z"/>
<path d="M13786 14003 c-6 -14 -5 -15 5 -6 7 7 10 15 7 18 -3 3 -9 -2 -12 -12z"/>
<path d="M13767 13973 c-4 -3 -7 -13 -7 -22 1 -13 3 -13 11 2 11 19 8 33 -4
20z"/>
<path d="M13742 13890 c0 -14 2 -19 5 -12 2 6 2 18 0 25 -3 6 -5 1 -5 -13z"/>
<path d="M13103 13780 c0 -30 2 -43 4 -27 2 15 2 39 0 55 -2 15 -4 2 -4 -28z"/>
<path d="M14083 13807 c-17 -7 -35 -15 -39 -19 -4 -5 -18 -8 -30 -8 -13 0 -26
-4 -29 -10 -3 -5 -14 -10 -23 -10 -9 0 -28 -6 -42 -13 -14 -7 -53 -21 -87 -32
-35 -11 -63 -23 -63 -27 0 -7 14 -4 55 12 11 4 49 17 85 30 122 42 185 66 205
77 25 15 10 15 -32 0z"/>
<path d="M13729 13720 c-3 -30 -4 -56 -4 -58 1 -1 10 0 19 4 11 4 13 10 7 18
-5 6 -11 29 -13 51 -3 38 -4 37 -9 -15z"/>
<path d="M13080 13452 c0 -5 -10 -14 -22 -21 -14 -7 -16 -9 -5 -6 10 3 25 5
33 5 8 0 14 7 14 15 0 8 -4 15 -10 15 -5 0 -10 -4 -10 -8z"/>
<path d="M12996 13411 c-4 -5 3 -7 14 -4 23 6 26 13 6 13 -8 0 -17 -4 -20 -9z"/>
<path d="M12915 13386 c-67 -22 -98 -36 -92 -42 3 -3 18 1 34 9 16 9 45 18 66
22 20 4 40 11 43 16 7 12 -2 11 -51 -5z"/>
<path d="M12765 13330 c-7 -12 2 -12 30 0 19 8 19 9 -2 9 -12 1 -25 -3 -28 -9z"/>
<path d="M12723 13235 c0 -27 2 -38 4 -22 2 15 2 37 0 50 -2 12 -4 0 -4 -28z"/>
<path d="M10267 14124 c-4 -4 -7 -14 -7 -23 0 -11 3 -12 11 -4 6 6 10 16 7 23
-2 6 -7 8 -11 4z"/>
<path d="M10190 14035 c-7 -9 -11 -17 -9 -20 3 -2 10 5 17 15 14 24 10 26 -8
5z"/>
<path d="M10040 13860 c0 -5 5 -10 11 -10 5 0 7 5 4 10 -3 6 -8 10 -11 10 -2
0 -4 -4 -4 -10z"/>
<path d="M10060 13836 c0 -2 7 -7 16 -10 8 -3 12 -2 9 4 -6 10 -25 14 -25 6z"/>
<path d="M10251 13727 c-1 -20 -5 -26 -13 -21 -8 5 -7 0 2 -11 14 -18 15 -18
18 3 2 12 1 30 -1 40 -3 10 -5 6 -6 -11z"/>
<path d="M9565 13550 c3 -5 8 -10 11 -10 2 0 4 5 4 10 0 6 -5 10 -11 10 -5 0
-7 -4 -4 -10z"/>
<path d="M9596 13515 c4 -8 11 -15 16 -15 6 0 5 6 -2 15 -7 8 -14 15 -16 15
-2 0 -1 -7 2 -15z"/>
<path d="M9621 13464 c0 -11 3 -14 6 -6 3 7 2 16 -1 19 -3 4 -6 -2 -5 -13z"/>
<path d="M9621 13388 c-1 -10 -5 -18 -11 -18 -5 0 -10 -5 -10 -12 0 -8 6 -7
16 4 9 9 14 22 11 30 -4 9 -6 7 -6 -4z"/>
<path d="M9410 13334 c0 -8 5 -12 10 -9 6 3 10 10 10 16 0 5 -4 9 -10 9 -5 0
-10 -7 -10 -16z"/>
<path d="M9411 13294 c0 -11 3 -14 6 -6 3 7 2 16 -1 19 -3 4 -6 -2 -5 -13z"/>
<path d="M9706 13207 c3 -10 9 -15 12 -12 3 3 0 11 -7 18 -10 9 -11 8 -5 -6z"/>
<path d="M9723 13140 c0 -25 2 -35 4 -22 2 12 2 32 0 45 -2 12 -4 2 -4 -23z"/>
<path d="M9382 13010 c0 -14 2 -19 5 -12 2 6 2 18 0 25 -3 6 -5 1 -5 -13z"/>
<path d="M9400 12981 c0 -5 5 -13 10 -16 6 -3 10 -2 10 4 0 5 -4 13 -10 16 -5
3 -10 2 -10 -4z"/>
<path d="M9720 12835 c0 -10 29 -24 34 -17 3 6 -3 12 -14 15 -11 3 -20 4 -20
2z"/>
<path d="M9526 12425 c-3 -8 -1 -15 4 -15 6 0 10 7 10 15 0 8 -2 15 -4 15 -2
0 -6 -7 -10 -15z"/>
<path d="M9591 12423 c0 -4 4 -17 9 -28 8 -19 9 -19 9 2 1 12 -3 25 -9 28 -5
3 -10 3 -9 -2z"/>
<path d="M9916 12333 c-3 -4 -6 -13 -6 -22 0 -10 3 -12 8 -5 4 6 14 13 21 16
13 4 12 5 -1 10 -9 4 -19 4 -22 1z"/>
<path d="M9988 12303 c7 -3 16 -2 19 1 4 3 -2 6 -13 5 -11 0 -14 -3 -6 -6z"/>
<path d="M10071 12201 c-8 -6 -9 -11 -3 -15 6 -3 14 -1 17 5 9 14 2 20 -14 10z"/>
<path d="M9910 12154 c0 -14 3 -14 15 -4 8 7 15 14 15 16 0 2 -7 4 -15 4 -8 0
-15 -7 -15 -16z"/>
<path d="M10077 12041 c-3 -12 -1 -21 3 -21 14 0 19 15 11 29 -6 9 -10 7 -14
-8z"/>
<path d="M9915 11999 c-11 -17 1 -21 15 -4 8 9 8 15 2 15 -6 0 -14 -5 -17 -11z"/>
<path d="M10027 11869 c7 -7 15 -10 18 -7 3 3 -2 9 -12 12 -14 6 -15 5 -6 -5z"/>
<path d="M10076 11860 c-19 -6 -19 -7 -1 -13 20 -8 29 -4 24 11 -2 5 -13 6
-23 2z"/>
<path d="M9915 11820 c-3 -6 1 -7 9 -4 18 7 21 14 7 14 -6 0 -13 -4 -16 -10z"/>
<path d="M9998 11803 c7 -3 16 -2 19 1 4 3 -2 6 -13 5 -11 0 -14 -3 -6 -6z"/>
<path d="M9956 11745 c4 -8 11 -15 16 -15 6 0 5 6 -2 15 -7 8 -14 15 -16 15
-2 0 -1 -7 2 -15z"/>
<path d="M10084 11695 c1 -19 4 -35 9 -35 9 0 9 42 -1 58 -5 8 -8 -1 -8 -23z"/>
<path d="M10038 11683 c7 -3 16 -2 19 1 4 3 -2 6 -13 5 -11 0 -14 -3 -6 -6z"/>
<path d="M10347 11261 c-4 -17 -3 -21 5 -13 5 5 8 16 6 23 -3 8 -7 3 -11 -10z"/>
<path d="M10840 11040 c0 -5 5 -10 11 -10 5 0 7 5 4 10 -3 6 -8 10 -11 10 -2
0 -4 -4 -4 -10z"/>
<path d="M10891 11004 c0 -11 3 -14 6 -6 3 7 2 16 -1 19 -3 4 -6 -2 -5 -13z"/>
<path d="M10892 10930 c0 -19 2 -27 5 -17 2 9 2 25 0 35 -3 9 -5 1 -5 -18z"/>
<path d="M10720 10923 c0 -5 5 -15 10 -23 8 -12 10 -11 10 8 0 12 -4 22 -10
22 -5 0 -10 -3 -10 -7z"/>
<path d="M10970 10800 c-13 -8 -12 -10 3 -10 9 0 17 5 17 10 0 12 -1 12 -20 0z"/>
<path d="M7345 11429 c-4 -6 -5 -12 -2 -15 2 -3 7 2 10 11 7 17 1 20 -8 4z"/>
<path d="M7263 11070 c0 -25 2 -35 4 -22 2 12 2 32 0 45 -2 12 -4 2 -4 -23z"/>
<path d="M7000 10972 c0 -5 48 -32 107 -61 59 -29 120 -61 135 -73 16 -11 32
-18 35 -15 9 10 -6 38 -19 35 -7 -1 -22 3 -33 9 -34 19 -219 113 -222 113 -2
0 -3 -4 -3 -8z"/>
<path d="M7838 10853 c-29 -36 -40 -81 -45 -188 l-4 -110 78 -37 c43 -21 116
-58 163 -83 47 -24 89 -45 93 -45 20 0 -9 22 -71 53 -37 19 -105 55 -152 79
l-85 45 -3 104 c-3 113 6 148 46 179 16 13 20 20 10 20 -8 0 -21 -8 -30 -17z"/>
<path d="M7940 10846 c0 -2 7 -7 16 -10 8 -3 12 -2 9 4 -6 10 -25 14 -25 6z"/>
<path d="M7990 10820 c8 -5 20 -10 25 -10 6 0 3 5 -5 10 -8 5 -19 10 -25 10
-5 0 -3 -5 5 -10z"/>
<path d="M16880 11017 c-36 -13 -76 -29 -90 -37 -44 -23 -136 -98 -169 -137
-18 -21 -41 -48 -52 -59 -10 -12 -19 -25 -19 -28 0 -4 -15 -30 -32 -59 -76
-121 -114 -219 -133 -345 -17 -106 -17 -119 -2 -213 20 -122 59 -201 129 -264
144 -129 374 -89 557 98 213 217 316 553 247 805 -55 202 -247 307 -436 239z
m300 -61 c0 -2 -7 -7 -16 -10 -8 -3 -12 -2 -9 4 6 10 25 14 25 6z m-154 -96
c-39 -25 -93 -57 -121 -70 -27 -14 -56 -31 -63 -37 -7 -7 -17 -13 -21 -13 -5
0 -45 -21 -89 -46 -83 -47 -104 -50 -95 -14 4 16 8 18 19 9 8 -7 17 -9 21 -5
3 3 1 6 -5 6 -20 0 -14 18 8 25 11 3 20 13 20 21 0 8 5 14 10 14 6 0 10 8 10
19 0 15 11 19 62 25 89 9 139 46 82 60 -18 5 -32 2 -44 -9 -16 -15 -18 -14
-22 8 -5 24 -5 24 76 20 45 -3 87 -10 94 -15 9 -8 16 -8 23 -1 8 8 6 11 -7 10
-11 -1 -20 6 -22 18 -2 11 -1 17 3 14 3 -4 18 -4 31 0 14 3 42 6 63 6 l38 0
-71 -45z m-406 -215 c0 -18 -45 -38 -69 -32 -10 3 -8 5 6 6 13 0 28 10 35 21
15 24 28 26 28 5z"/>
<path d="M16770 10755 c-11 -13 -10 -14 4 -9 9 3 16 10 16 15 0 13 -6 11 -20
-6z"/>
<path d="M16720 10726 c0 -9 5 -16 10 -16 6 0 10 4 10 9 0 6 -4 13 -10 16 -5
3 -10 -1 -10 -9z"/>
<path d="M16075 10390 c-369 -96 -506 -122 -700 -133 -47 -2 -66 -26 -115
-143 -155 -373 -42 -737 239 -771 44 -5 146 10 180 27 117 57 198 116 252 183
105 130 168 246 205 383 36 129 40 316 9 403 -22 60 -26 63 -70 51z"/>
<path d="M13664 9951 c-3 -28 -13 -59 -20 -68 -13 -17 -15 -17 -27 2 -6 11
-15 31 -18 45 -6 28 -17 -144 -24 -382 -2 -87 -9 -165 -14 -175 -5 -10 -17
-37 -27 -61 -17 -42 -55 -66 -74 -46 -4 5 -12 151 -16 324 -4 213 -10 307 -16
290 -9 -23 -14 -53 -17 -92 -1 -22 -33 -16 -42 8 -4 10 -8 32 -8 49 -1 17 -5
25 -10 20 -5 -6 -12 -176 -15 -380 -7 -352 -6 -371 12 -394 l19 -23 51 22 c38
16 62 36 92 76 45 59 60 67 60 30 0 -35 8 -36 67 -10 46 20 52 27 57 61 7 40
-11 743 -18 751 -3 2 -8 -19 -12 -47z"/>
<path d="M13420 9940 c0 -5 5 -10 10 -10 6 0 10 5 10 10 0 6 -4 10 -10 10 -5
0 -10 -4 -10 -10z"/>
<path d="M13345 9911 c-3 -5 -1 -12 5 -16 5 -3 10 1 10 9 0 18 -6 21 -15 7z"/>
<path d="M13150 9789 c0 -5 5 -7 10 -4 6 3 10 8 10 11 0 2 -4 4 -10 4 -5 0
-10 -5 -10 -11z"/>
<path d="M12945 9750 c-3 -5 -1 -10 4 -10 6 0 11 5 11 10 0 6 -2 10 -4 10 -3
0 -8 -4 -11 -10z"/>
<path d="M13169 9708 c-1 -24 -4 -33 -6 -20 -4 22 -5 23 -18 5 -11 -15 -17
-16 -33 -6 -17 10 -19 8 -20 -25 -1 -20 5 -43 12 -51 12 -13 13 -44 5 -176
-15 -275 -33 -342 -96 -360 -17 -5 -23 -2 -23 10 0 9 -7 23 -15 31 -12 12 -15
46 -16 162 0 153 -8 344 -15 351 -2 2 -7 -5 -11 -15 -15 -36 -33 -26 -33 18 0
57 -11 41 -16 -23 -2 -28 -10 -57 -18 -63 -11 -9 -15 -64 -20 -258 -6 -227 -5
-251 12 -280 34 -62 47 -78 64 -78 10 0 18 -5 18 -11 0 -17 61 -2 118 29 58
31 86 64 120 137 24 49 24 55 23 320 -1 149 -4 285 -7 303 -9 49 -24 49 -25 0z
m-42 -70 c-3 -7 -5 -2 -5 12 0 14 2 19 5 13 2 -7 2 -19 0 -25z"/>
<path d="M13023 9710 c-13 -5 -23 -12 -23 -15 0 -9 16 -5 36 10 22 16 19 18
-13 5z"/>
<path d="M12964 9672 c-7 -4 -8 -15 -4 -27 7 -18 9 -18 15 -3 9 23 3 39 -11
30z"/>
<path d="M12687 9597 c-11 -29 -9 -53 4 -40 6 6 9 21 7 34 -3 21 -4 22 -11 6z"/>
<path d="M12608 9584 c-5 -4 -8 -23 -8 -43 0 -25 3 -32 11 -24 6 6 9 25 7 43
-2 17 -6 28 -10 24z"/>
<path d="M12670 9528 c0 -6 -3 -8 -7 -5 -4 4 -12 -6 -19 -23 -14 -33 -34 -40
-34 -12 -1 12 -5 9 -16 -11 -9 -16 -21 -26 -29 -24 -7 3 -18 0 -24 -6 -6 -6
-23 -11 -39 -12 -25 0 -27 -3 -30 -47 -2 -31 2 -56 13 -72 15 -23 17 -58 14
-300 -2 -151 -1 -277 2 -280 3 -3 33 7 66 23 41 20 62 37 67 53 7 28 8 203 1
210 -9 8 -13 232 -5 243 4 6 10 36 14 68 3 32 10 66 15 75 10 20 24 132 16
132 -3 0 -5 -5 -5 -12z"/>
<path d="M12445 9478 c0 -18 6 -33 14 -36 11 -4 12 2 7 24 -11 42 -22 49 -21
12z"/>
<path d="M13690 9059 c-30 -11 -82 -28 -115 -39 -33 -10 -82 -26 -110 -35 -50
-17 -382 -146 -440 -170 -16 -7 -84 -35 -150 -61 -66 -26 -127 -53 -135 -59
-8 -7 -43 -22 -77 -35 -34 -12 -68 -28 -74 -36 -6 -8 -16 -14 -21 -14 -24 0
-175 -79 -193 -101 -28 -33 -90 -130 -99 -154 -5 -11 -16 -85 -27 -165 -14
-111 -18 -211 -19 -424 0 -379 16 -498 73 -549 47 -41 98 -36 267 26 69 25
148 53 175 62 153 52 591 230 615 249 8 7 40 23 70 35 56 24 104 45 240 108
87 40 151 98 187 168 36 70 43 100 59 265 33 329 33 338 5 687 -5 66 -14 137
-19 157 -16 58 -84 107 -146 106 -6 -1 -36 -10 -66 -21z m116 -39 c47 -17 74
-75 74 -162 0 -101 -6 -108 -67 -80 -41 20 -119 43 -188 56 -11 3 -36 9 -55
16 -19 6 -53 13 -75 16 -22 3 -41 10 -43 15 -2 5 -15 6 -28 3 -13 -3 -24 -2
-24 4 0 16 38 36 155 81 61 24 119 47 130 51 28 12 87 12 121 0z m-576 -345
c9 -11 11 -49 8 -137 l-4 -121 30 35 c59 67 103 75 138 26 23 -33 23 -36 22
-303 0 -255 -2 -273 -22 -319 -25 -55 -42 -71 -91 -85 -25 -8 -39 -7 -49 1
-10 9 -18 6 -35 -15 -26 -31 -96 -62 -110 -48 -5 5 -6 192 -2 474 l8 465 41
20 c52 25 51 25 66 7z m527 -57 c37 -35 44 -67 41 -197 l-3 -123 -97 -40 -98
-41 0 -71 c0 -113 12 -134 56 -102 14 11 20 30 24 77 5 62 6 64 45 86 68 39
75 34 75 -49 0 -73 -21 -131 -70 -194 -46 -60 -157 -88 -199 -50 -46 42 -54
90 -49 303 6 228 17 279 79 345 21 23 40 44 41 48 2 3 21 14 43 23 46 19 81
14 112 -15z m-1019 -202 c4 -69 -10 -90 -71 -108 -21 -6 -41 -17 -43 -22 -2
-6 -7 -186 -11 -401 l-8 -389 -40 -23 c-22 -12 -51 -23 -64 -23 l-23 0 7 384
c4 211 5 389 1 394 -4 6 -24 1 -54 -13 -26 -12 -50 -21 -54 -18 -14 8 -9 140
5 150 6 5 62 29 122 53 61 24 128 51 150 61 67 31 79 24 83 -45z m310 -376 c1
-179 0 -335 -3 -348 -4 -15 -21 -30 -48 -42 -54 -25 -67 -25 -67 0 0 11 -4 20
-10 20 -5 0 -10 -4 -10 -9 0 -5 -20 -30 -45 -55 -49 -51 -96 -62 -121 -28 -19
24 -20 649 -1 672 14 18 95 55 103 48 3 -4 6 -134 7 -290 2 -236 4 -283 16
-283 8 0 25 18 37 40 22 39 23 48 24 300 0 143 4 265 8 271 9 15 62 33 87 31
19 -2 20 -10 23 -327z"/>
<path d="M13251 8321 c-19 -27 -21 -43 -21 -213 0 -100 3 -193 6 -205 9 -34
38 -28 57 12 14 29 17 68 17 216 0 217 -12 256 -59 190z"/>
<path d="M13631 8483 c-30 -24 -43 -133 -17 -133 21 0 58 19 68 34 4 6 5 31 3
55 -8 67 -17 74 -54 44z"/>
<path d="M4305 9085 c3 -16 6 -48 7 -70 0 -22 7 -56 14 -75 7 -19 15 -57 18
-85 4 -27 11 -72 16 -100 5 -27 9 -136 9 -242 1 -105 5 -203 11 -217 5 -14 27
-34 50 -46 51 -26 56 -17 46 78 -22 217 -16 400 14 507 5 17 11 50 15 75 6 44
6 45 -12 25 -19 -20 -44 -31 -42 -17 4 23 -2 72 -8 72 -5 0 -9 -19 -10 -42 -2
-22 -5 -43 -7 -46 -12 -11 -36 10 -36 31 0 30 -10 40 -26 26 -10 -8 -15 -4
-20 18 -11 47 -44 140 -39 108z"/>
<path d="M4350 9055 c0 -8 4 -15 10 -15 5 0 7 7 4 15 -4 8 -8 15 -10 15 -2 0
-4 -7 -4 -15z"/>
<path d="M4663 8837 c-11 -12 -25 -43 -32 -69 -13 -56 -15 -437 -2 -488 32
-124 83 -205 153 -241 35 -18 44 -19 65 -8 35 19 56 65 56 124 -1 75 -23 436
-29 470 -12 67 -44 141 -44 103 0 -9 -7 -18 -15 -22 -9 -3 -15 0 -15 9 0 16
-51 58 -76 61 -8 1 -24 -6 -35 -17 -19 -19 -19 -18 -19 26 0 33 4 45 15 45 16
0 20 16 6 24 -4 3 -17 -5 -28 -17z m99 -107 c12 -11 18 -20 14 -20 -4 0 0 -7
8 -16 10 -9 16 -33 16 -58 0 -23 3 -45 6 -49 11 -10 6 -361 -5 -390 -9 -24
-13 -26 -31 -17 -12 6 -24 19 -26 28 -3 9 -10 26 -16 38 -12 25 -14 55 -23
285 -6 153 -5 190 6 203 18 20 26 20 51 -4z"/>
<path d="M4793 8776 c12 -13 26 -22 31 -19 5 4 -1 14 -13 25 -33 26 -43 22
-18 -6z"/>
<path d="M4992 8329 c3 -345 4 -366 23 -399 12 -19 35 -43 53 -53 28 -16 37
-17 62 -7 35 14 50 7 50 -25 0 -18 11 -32 40 -50 61 -39 63 -37 57 68 -3 50
-11 220 -17 377 -6 157 -13 291 -15 298 -9 25 -23 11 -23 -24 0 -40 -17 -67
-19 -31 -1 12 -5 32 -8 45 -3 13 -1 22 6 22 8 0 8 4 -1 15 -7 8 -15 15 -19 15
-4 0 -8 -123 -9 -272 -2 -269 -9 -338 -36 -338 -26 0 -44 36 -50 100 -3 36
-11 180 -17 320 -6 140 -15 259 -20 265 -9 9 -13 -32 -9 -82 1 -13 -3 -23 -8
-23 -12 0 -25 80 -17 102 3 8 -1 21 -10 28 -15 13 -16 -14 -13 -351z"/>
<path d="M4272 8170 c-40 -25 -51 -47 -58 -117 -13 -145 -2 -551 22 -773 16
-149 81 -257 205 -340 37 -25 111 -75 165 -111 121 -81 404 -255 442 -271 15
-7 45 -24 67 -38 80 -52 244 -130 274 -130 39 0 65 36 81 115 17 81 18 474 2
645 -33 338 -58 392 -244 515 -57 37 -121 80 -143 95 -22 14 -89 55 -150 90
-60 35 -158 92 -217 127 -109 63 -265 144 -363 187 -52 24 -53 24 -83 6z m162
-214 c79 -46 121 -77 127 -93 10 -26 13 -113 3 -113 -3 0 -21 11 -41 25 -20
13 -38 23 -40 22 -1 -2 3 -155 9 -340 5 -186 8 -341 4 -344 -3 -3 -23 6 -44
20 l-39 25 -7 209 c-3 114 -9 269 -13 345 l-6 136 -43 31 c-44 30 -44 31 -44
92 0 33 4 59 8 57 4 -1 61 -34 126 -72z m466 -273 c38 -26 40 -31 40 -149 0
-61 3 -114 6 -117 4 -3 16 -1 27 4 26 14 63 -13 91 -67 18 -34 22 -68 30 -271
10 -260 4 -313 -37 -313 -25 1 -59 26 -75 57 -8 14 -18 19 -34 16 -15 -2 -32
5 -49 21 -29 27 -29 27 -45 604 -8 252 -8 252 46 215z m284 -33 c110 -66 165
-116 201 -181 25 -46 29 -67 32 -144 2 -77 1 -86 -10 -65 -6 14 -39 63 -72
109 -33 46 -64 90 -70 100 -5 9 -16 20 -23 24 -6 4 -21 25 -31 45 -11 20 -44
64 -75 97 -31 33 -56 61 -56 62 0 11 32 -4 104 -47z m-557 -17 l30 -28 6 -160
c4 -88 7 -198 7 -245 0 -96 9 -121 37 -104 20 12 20 17 13 311 -2 90 -1 166 3
169 3 3 21 -6 40 -20 l34 -26 6 -113 c18 -304 20 -497 7 -497 -23 0 -80 50
-80 71 0 22 -4 23 -29 7 -31 -19 -86 22 -100 75 -11 41 -33 565 -24 580 7 13
20 8 50 -20z m639 -365 c80 -62 117 -165 112 -315 l-3 -93 -65 40 c-36 21 -69
39 -74 40 -5 0 -6 -36 -3 -81 4 -63 10 -86 25 -102 28 -27 44 -13 40 35 -4 52
11 58 51 21 27 -24 31 -35 33 -85 2 -63 -21 -110 -58 -116 -34 -5 -110 62
-139 122 -32 66 -48 216 -43 397 2 98 6 120 22 138 25 27 66 27 102 -1z"/>
<path d="M4948 7323 c-2 -4 -1 -93 2 -196 4 -170 7 -190 24 -202 10 -8 23 -12
27 -9 14 8 9 334 -5 374 -12 33 -39 51 -48 33z"/>
<path d="M5229 7143 c0 -10 -2 -31 -4 -47 -3 -20 3 -34 22 -52 41 -38 54 -32
47 24 -7 54 -28 92 -49 92 -8 0 -15 -8 -16 -17z"/>
<path d="M19417 8873 c-4 -3 -7 -11 -7 -17 0 -6 5 -5 12 2 6 6 9 14 7 17 -3 3
-9 2 -12 -2z"/>
<path d="M19610 8869 c0 -5 5 -7 10 -4 6 3 10 8 10 11 0 2 -4 4 -10 4 -5 0
-10 -5 -10 -11z"/>
<path d="M19080 7600 c0 -5 5 -10 10 -10 6 0 10 5 10 10 0 6 -4 10 -10 10 -5
0 -10 -4 -10 -10z"/>
<path d="M18730 7467 c0 -10 8 -17 18 -17 9 0 13 4 7 8 -5 4 -13 11 -17 16 -5
5 -8 2 -8 -7z"/>
<path d="M19437 7311 c-4 -17 -3 -21 5 -13 5 5 8 16 6 23 -3 8 -7 3 -11 -10z"/>
<path d="M19436 7177 c3 -10 9 -15 12 -12 3 3 0 11 -7 18 -10 9 -11 8 -5 -6z"/>
<path d="M19446 6857 c3 -10 9 -15 12 -12 3 3 0 11 -7 18 -10 9 -11 8 -5 -6z"/>
<path d="M19280 6780 c0 -5 5 -10 11 -10 5 0 7 5 4 10 -3 6 -8 10 -11 10 -2 0
-4 -4 -4 -10z"/>
<path d="M20067 6673 c-4 -3 -7 -11 -7 -17 0 -6 5 -5 12 2 6 6 9 14 7 17 -3 3
-9 2 -12 -2z"/>
<path d="M9185 5986 c-54 -54 -95 -184 -95 -304 0 -242 128 -549 302 -719 97
-96 150 -131 247 -162 132 -43 265 32 318 179 24 65 33 188 23 281 -13 117
-43 229 -60 229 -27 0 -492 331 -590 420 -75 68 -112 100 -116 100 -3 0 -16
-11 -29 -24z"/>
<path d="M10345 5458 c-127 -67 -195 -248 -166 -445 28 -196 87 -352 192 -509
171 -254 411 -380 559 -292 92 54 141 137 159 271 58 422 -313 999 -641 997
-44 -1 -75 -7 -103 -22z"/>
<path d="M13317 6433 c-27 -8 -46 -17 -43 -20 7 -7 97 17 111 28 13 13 -11 10
-68 -8z"/>
<path d="M13211 6399 c-18 -6 -31 -13 -28 -16 8 -7 66 7 72 18 7 11 1 10 -44
-2z"/>
<path d="M13125 6364 c-19 -16 -19 -16 5 -9 31 9 50 25 30 25 -8 0 -24 -8 -35
-16z"/>
<path d="M13065 6340 c-19 -8 -19 -9 2 -9 12 -1 25 4 28 9 7 12 -2 12 -30 0z"/>
<path d="M12943 6290 c-24 -11 -43 -21 -43 -24 0 -5 91 31 99 40 9 9 -16 2
-56 -16z"/>
<path d="M12840 6250 c-8 -4 -55 -25 -105 -46 -49 -20 -105 -43 -124 -51 -18
-8 -31 -16 -28 -19 2 -3 20 2 38 10 19 8 68 29 109 46 115 50 134 58 150 63
10 4 9 5 -5 6 -11 0 -27 -4 -35 -9z"/>
<path d="M12520 6115 c-14 -8 -33 -14 -42 -15 -10 0 -18 -5 -18 -11 0 -7 7 -8
18 -4 9 4 31 12 47 17 17 6 34 15 40 19 15 14 -17 10 -45 -6z"/>
<path d="M12391 6064 c-19 -8 -31 -17 -28 -20 3 -3 25 3 49 14 49 23 30 29
-21 6z"/>
<path d="M12328 5617 c2 -215 5 -396 7 -402 2 -5 4 166 4 380 0 215 -3 396 -7
402 -5 7 -6 -164 -4 -380z"/>
<path d="M13080 5866 c-36 -13 -99 -37 -140 -54 l-75 -31 -5 -243 c-3 -134 -2
-247 2 -252 4 -5 12 -5 20 2 7 5 63 31 123 57 61 26 129 61 152 78 54 41 126
164 120 204 -4 27 -4 27 -6 -4 0 -18 -5 -33 -11 -33 -5 0 -10 -9 -10 -19 0
-11 -19 -40 -42 -65 -36 -39 -62 -54 -166 -96 -131 -53 -168 -61 -158 -34 3 9
6 99 6 200 l0 185 48 20 c26 11 56 24 67 28 11 5 36 15 55 23 20 9 62 21 93
29 l58 12 31 -30 c27 -27 31 -40 38 -109 l7 -79 2 68 c3 153 -61 197 -209 143z"/>
<path d="M13190 5002 c-79 -27 -314 -122 -323 -131 -7 -7 -11 -581 -3 -588 1
-2 41 14 87 35 46 22 123 56 171 77 102 44 187 112 240 191 46 68 58 108 65
209 6 98 -7 152 -47 190 -38 37 -111 43 -190 17z"/>
<path d="M15942 6818 c-48 -23 -117 -96 -139 -148 -8 -19 -21 -68 -29 -107
-12 -63 -12 -83 1 -148 35 -184 132 -267 246 -212 52 26 115 90 146 150 71
139 21 396 -90 462 -52 30 -78 31 -135 3z"/>
<path d="M15986 5815 c-199 -113 -303 -242 -314 -386 -6 -83 10 -132 53 -164
129 -99 453 48 550 250 55 111 44 224 -26 278 -39 30 -130 67 -162 67 -12 0
-58 -20 -101 -45z"/>
<path d="M14048 3953 c6 -2 18 -2 25 0 6 3 1 5 -13 5 -14 0 -19 -2 -12 -5z"/>
<path d="M13840 3899 c0 -5 5 -7 10 -4 6 3 10 8 10 11 0 2 -4 4 -10 4 -5 0
-10 -5 -10 -11z"/>
<path d="M12760 3419 c0 -5 5 -7 10 -4 6 3 10 8 10 11 0 2 -4 4 -10 4 -5 0
-10 -5 -10 -11z"/>
<path d="M12258 3343 c12 -2 32 -2 45 0 12 2 2 4 -23 4 -25 0 -35 -2 -22 -4z"/>
<path d="M12568 3343 c6 -2 18 -2 25 0 6 3 1 5 -13 5 -14 0 -19 -2 -12 -5z"/>
<path d="M12020 3230 c-20 -6 -21 -8 -5 -8 11 0 31 4 45 8 20 6 21 8 5 8 -11
0 -31 -4 -45 -8z"/>
<path d="M11928 3198 c5 -5 16 -8 23 -6 8 3 3 7 -10 11 -17 4 -21 3 -13 -5z"/>
<path d="M12293 20478 c-13 -6 -23 -19 -23 -29 0 -19 52 -53 64 -42 3 4 -8 13
-25 20 -27 11 -30 15 -18 29 7 9 22 20 34 24 12 5 14 9 5 9 -8 0 -25 -5 -37
-11z"/>
<path d="M12725 20471 c-20 -4 -25 -8 -15 -12 8 -3 29 0 45 7 32 14 20 16 -30
5z"/>
<path d="M12615 20435 c-39 -18 -22 -18 35 -1 31 10 37 15 20 15 -14 -1 -38
-7 -55 -14z"/>
<path d="M12540 20410 c0 -13 11 -13 30 0 12 8 11 10 -7 10 -13 0 -23 -4 -23
-10z"/>
<path d="M12370 20386 c31 -19 74 -19 120 0 l35 14 -35 -6 c-46 -9 -79 -9
-115 0 l-30 7 25 -15z"/>
<path d="M11728 20233 c7 -3 16 -2 19 1 4 3 -2 6 -13 5 -11 0 -14 -3 -6 -6z"/>
<path d="M11806 20196 c7 -18 49 -22 59 -6 3 6 -3 10 -14 10 -10 0 -27 3 -35
6 -12 5 -15 2 -10 -10z"/>
<path d="M11740 20165 c-26 -10 -29 -14 -14 -14 12 -1 35 6 50 14 36 18 12 18
-36 0z"/>
<path d="M11668 20143 c7 -3 16 -2 19 1 4 3 -2 6 -13 5 -11 0 -14 -3 -6 -6z"/>
<path d="M9080 19360 c0 -4 -6 -8 -12 -7 -48 1 -52 -4 -17 -22 20 -11 65 -32
100 -46 35 -15 80 -33 99 -42 19 -8 59 -24 89 -36 61 -25 85 -52 61 -67 -26
-17 -73 -11 -160 21 -47 17 -132 48 -190 68 -58 20 -110 39 -115 43 -6 3 -25
9 -44 13 -32 7 -34 6 -19 -9 9 -9 25 -16 35 -17 11 0 13 -3 5 -6 -7 -3 -28 2
-46 11 -19 9 -41 16 -50 16 -34 0 -13 -16 57 -44 39 -16 90 -37 112 -46 221
-97 312 -130 358 -129 45 0 114 30 133 57 12 18 22 21 52 17 37 -6 111 14 115
30 1 5 -36 22 -83 38 -47 16 -164 58 -260 92 -192 69 -220 77 -220 65z m40
-25 c27 -15 20 -19 -17 -9 -13 4 -23 10 -23 15 0 12 11 11 40 -6z"/>
<path d="M8592 19190 c-23 -4 -48 -12 -54 -18 -9 -9 2 -12 48 -12 65 0 101
-11 249 -72 105 -44 145 -66 145 -78 0 -4 -11 -12 -24 -18 -28 -13 -131 0
-175 22 -14 7 -78 30 -141 52 -63 21 -120 45 -126 53 -9 11 -13 11 -19 1 -4
-7 -2 -16 6 -21 10 -6 6 -9 -13 -9 -15 0 -36 10 -48 22 -11 12 -23 18 -27 14
-17 -18 69 -71 207 -128 l145 -60 125 -1 c117 -2 129 0 183 25 45 21 57 32 57
50 0 31 -23 44 -155 91 -249 88 -297 99 -383 87z"/>
<path d="M9885 19153 c-37 -4 -102 -20 -180 -44 -285 -88 -709 -231 -915 -308
-47 -18 -98 -37 -115 -42 -16 -5 -52 -22 -80 -37 -52 -28 -71 -67 -43 -89 30
-23 163 -85 308 -143 286 -115 421 -144 555 -121 69 12 367 108 685 221 96 34
186 66 200 70 14 5 61 22 105 39 44 16 127 48 185 69 118 45 167 80 151 109
-8 16 -167 103 -187 103 -4 0 -34 13 -68 29 -33 16 -115 46 -181 66 -66 21
-140 44 -165 52 -54 18 -195 32 -255 26z m232 -45 l48 -23 -50 -2 c-27 -2
-108 -9 -180 -17 -71 -9 -175 -20 -230 -26 -55 -6 -113 -13 -130 -17 -100 -19
106 61 260 102 76 20 221 12 282 -17z m183 -111 c36 -14 65 -31 65 -38 0 -7
-33 -23 -73 -37 -41 -13 -70 -28 -65 -32 16 -15 77 -30 119 -30 48 0 59 16 19
26 -35 9 -26 26 22 43 34 12 49 13 82 3 109 -33 78 -93 -64 -122 -91 -19 -166
-7 -310 50 -177 70 -198 87 -157 122 60 54 238 61 362 15z m-734 -97 l77 -31
21 20 c27 26 97 39 156 30 80 -12 390 -139 390 -159 0 -18 -43 -42 -82 -47
-24 -3 -66 -16 -95 -29 -28 -13 -56 -24 -62 -24 -5 0 -56 18 -113 41 -57 23
-188 74 -293 114 -104 40 -191 78 -193 83 -4 13 44 30 85 31 18 1 67 -13 109
-29z m-26 -117 c36 -13 83 -33 105 -42 22 -10 86 -35 143 -56 56 -21 102 -41
102 -45 0 -14 -90 -41 -111 -35 -16 6 -27 0 -44 -21 -19 -24 -31 -28 -86 -32
-60 -4 -75 0 -254 71 -104 41 -198 77 -207 80 -27 10 -22 24 13 36 43 15 82
14 121 -4 50 -22 269 -106 301 -116 32 -9 57 -3 57 15 0 9 -138 67 -291 122
-53 19 -55 30 -7 47 49 18 67 16 158 -20z m-472 -25 c34 -12 22 -31 -27 -41
-24 -5 -39 -12 -35 -17 5 -5 63 -29 129 -55 66 -26 165 -64 220 -86 55 -21
105 -39 112 -39 16 0 27 -20 17 -30 -5 -5 -30 -14 -55 -21 -45 -12 -46 -12
-301 90 l-256 101 -54 -20 c-49 -18 -59 -19 -94 -7 -64 23 -54 39 43 69 49 15
120 39 158 52 68 24 88 25 143 4z"/>
<path d="M10081 18971 c-35 -23 36 -49 84 -31 16 6 24 14 19 19 -14 14 -87 22
-103 12z"/>
<path d="M9731 18851 c-17 -11 -28 -5 140 -71 100 -39 166 -49 162 -25 -1 12
-239 105 -268 105 -11 0 -27 -4 -34 -9z"/>
<path d="M8200 19050 c0 -5 5 -10 10 -10 6 0 10 5 10 10 0 6 -4 10 -10 10 -5
0 -10 -4 -10 -10z"/>
<path d="M8236 19025 c4 -10 0 -15 -13 -15 -11 0 -30 -9 -43 -20 -17 -14 -27
-17 -36 -10 -6 6 -49 12 -94 13 -69 3 -79 1 -64 -10 10 -7 32 -13 49 -13 18 0
46 -7 64 -16 18 -9 51 -19 74 -22 39 -5 92 -25 299 -112 l77 -32 58 19 c32 11
57 23 56 28 -2 9 -88 43 -193 76 -46 15 -105 45 -153 77 -42 28 -79 52 -82 52
-2 0 -2 -7 1 -15z"/>
<path d="M6110 18539 c-30 -4 -77 -10 -105 -13 -134 -17 -406 -98 -535 -159
-95 -45 -223 -131 -295 -198 -41 -38 -80 -69 -87 -69 -7 0 -103 7 -213 16
-273 21 -366 20 -439 -5 -103 -36 -165 -81 -197 -143 -26 -51 -24 -90 6 -127
42 -49 88 -59 375 -81 375 -28 347 -22 354 -73 7 -46 28 -113 39 -123 11 -11
8 6 -8 60 -8 27 -15 62 -15 78 l0 29 113 -7 c61 -3 115 -9 118 -13 3 -3 12
-26 19 -51 24 -77 51 -121 120 -189 108 -108 266 -185 465 -227 95 -20 349
-28 450 -14 193 27 226 35 410 104 128 47 305 163 380 249 67 77 86 105 133
200 44 88 46 96 46 182 1 103 -13 157 -60 230 -52 80 -89 115 -201 189 -95 64
-170 92 -354 132 -104 22 -151 27 -294 28 -93 1 -195 -1 -225 -5z m385 -54
c185 -22 324 -68 475 -156 64 -38 157 -139 191 -208 40 -81 50 -181 25 -254
-26 -78 -86 -188 -130 -240 -88 -105 -296 -232 -476 -290 -449 -145 -958 -79
-1192 155 -64 64 -83 94 -114 176 -10 26 -10 34 0 38 7 3 104 -2 217 -11 380
-28 388 -29 499 -11 58 9 121 18 140 20 19 2 42 7 50 10 8 2 44 7 80 10 52 4
232 31 490 72 45 7 32 15 -107 59 -59 19 -160 52 -223 74 -310 107 -271 100
-715 131 -220 15 -275 21 -275 30 0 5 44 35 98 68 170 104 313 156 537 192 74
12 319 15 383 5 251 -42 397 -149 419 -312 7 -50 -20 -144 -55 -191 -13 -18
-21 -36 -17 -40 9 -9 65 57 65 76 0 7 7 27 16 45 11 21 17 57 17 107 1 64 -3
82 -26 122 -33 55 -109 129 -163 156 -56 29 -135 50 -249 68 -199 32 -501 -5
-715 -88 -119 -46 -248 -121 -328 -189 -32 -28 -33 -28 -130 -22 -53 3 -101
10 -107 15 -20 18 148 141 286 210 300 150 687 215 1034 173z m-1694 -415 c33
0 59 -3 59 -7 0 -5 -23 -24 -52 -43 -28 -19 -61 -50 -74 -70 -27 -41 -41 -105
-25 -114 6 -4 11 -13 11 -21 0 -11 -14 -13 -67 -9 -100 8 -109 11 -123 43 -24
59 19 140 104 197 38 25 58 33 80 29 16 -3 55 -5 87 -5z m-317 -48 c-61 -55
-79 -96 -70 -154 7 -41 7 -41 -16 -26 -32 21 -51 63 -43 98 7 32 55 75 120
108 62 31 64 26 9 -26z m881 8 c165 -11 314 -22 330 -25 17 -2 80 -5 142 -6
62 -1 117 -5 123 -9 19 -12 -23 -39 -111 -72 -77 -29 -94 -32 -209 -32 -69 -1
-161 2 -205 6 -44 3 -196 14 -337 24 -193 13 -258 21 -258 31 0 14 94 88 130
101 14 5 41 8 60 6 19 -2 170 -13 335 -24z m781 -81 c49 -16 105 -35 124 -40
90 -26 161 -52 158 -57 -2 -4 -10 -19 -17 -34 -11 -21 -23 -28 -55 -32 -90
-11 -276 -37 -354 -50 l-82 -13 -35 49 c-20 26 -51 56 -71 65 -32 16 -34 18
-18 30 10 7 26 13 36 13 25 0 162 65 178 85 18 21 35 19 136 -16z m-856 -74
c370 -25 436 -36 505 -76 32 -19 54 -54 41 -66 -3 -4 -104 1 -223 10 -120 10
-317 24 -438 33 -121 8 -247 18 -280 22 -59 7 -60 8 -69 43 -15 59 -4 73 52
66 26 -4 211 -18 412 -32z"/>
<path d="M18279 18276 c-2 -2 -60 -6 -129 -9 -69 -3 -147 -10 -175 -17 -221
-53 -285 -77 -343 -131 -26 -24 -32 -38 -32 -70 0 -56 22 -92 77 -126 130 -79
305 -119 569 -130 298 -12 568 47 688 151 36 31 39 38 38 81 0 39 -6 53 -34
82 -43 45 -151 95 -263 123 -107 26 -382 59 -396 46z m-138 -55 c-23 -18 -100
-55 -196 -96 -22 -10 -83 -39 -135 -65 -99 -48 -185 -75 -146 -45 11 8 27 15
37 15 9 0 22 6 28 14 7 8 26 18 42 21 20 5 29 13 29 26 0 16 7 19 40 19 29 0
40 4 40 15 0 11 11 15 41 15 32 0 40 3 35 15 -3 10 1 15 12 15 27 0 93 26 92
36 -1 5 18 14 42 21 61 16 66 15 39 -6z m-231 -61 c12 -8 9 -10 -13 -10 -16 0
-26 4 -22 10 8 12 16 12 35 0z"/>
<path d="M17298 17844 c-3 -3 -28 -11 -54 -19 -156 -43 -413 -113 -434 -118
-14 -3 -90 -19 -170 -36 -79 -17 -150 -33 -157 -35 -44 -17 34 -107 132 -152
39 -17 120 -45 180 -60 106 -28 119 -29 355 -29 219 0 255 3 340 23 106 25
222 76 269 118 27 24 31 34 31 79 0 43 -5 56 -30 82 -35 35 -130 88 -197 108
-113 35 -249 55 -265 39z"/>
<path d="M5029 17528 c4 -12 13 -24 20 -26 9 -3 9 2 0 22 -15 32 -32 35 -20 4z"/>
<path d="M5080 17460 c6 -11 13 -20 16 -20 2 0 0 9 -6 20 -6 11 -13 20 -16 20
-2 0 0 -9 6 -20z"/>
<path d="M19941 16840 c-230 -49 -449 -189 -725 -463 -88 -86 -163 -154 -166
-150 -9 9 -138 193 -195 276 -59 88 -105 104 -193 69 -222 -91 -472 -469 -472
-715 0 -74 7 -88 175 -319 61 -83 113 -157 117 -164 4 -6 -23 -76 -63 -158
-95 -198 -187 -436 -168 -436 5 0 9 7 9 15 0 8 7 31 16 52 9 21 20 47 24 58
28 73 61 148 121 274 38 79 69 148 69 152 0 29 27 -1 103 -114 l26 -39 -23
-46 c-35 -68 -109 -252 -149 -367 -153 -436 -178 -870 -65 -1104 30 -63 102
-138 163 -169 66 -34 190 -42 285 -18 96 25 240 99 354 184 97 72 316 283 380
368 98 129 204 273 221 301 11 17 58 91 104 165 121 190 287 523 352 703 16
44 33 89 38 100 12 25 83 253 100 320 74 291 99 506 81 713 -16 185 -59 305
-145 400 -66 73 -147 111 -250 117 -44 2 -100 0 -124 -5z m135 -157 c204 -69
304 -272 304 -616 -1 -533 -249 -1191 -679 -1797 -156 -221 -288 -361 -456
-487 -248 -186 -462 -239 -645 -160 -96 41 -186 181 -215 332 -28 147 -13 419
32 585 8 30 21 78 28 105 21 81 41 146 65 210 30 82 112 278 121 288 7 9 51
-43 124 -148 22 -32 72 -101 111 -154 l71 -98 59 -11 c392 -79 480 -96 548
-108 43 -8 79 -13 80 -12 1 2 17 23 37 48 267 343 470 784 540 1175 18 101 17
308 -3 371 -54 173 -137 243 -288 244 -127 0 -242 -43 -400 -151 -88 -60 -300
-244 -300 -260 0 -22 -22 -5 -58 44 -76 102 -76 87 8 173 210 212 473 383 660
429 78 19 197 18 256 -2z m-1366 -257 c0 -2 -15 -13 -33 -25 -26 -16 -108 -94
-173 -164 -31 -35 -116 -172 -146 -237 -19 -41 -40 -86 -46 -100 -11 -23 -12
-22 -8 15 5 53 30 137 54 183 11 20 30 57 43 81 37 69 150 183 216 219 51 28
93 40 93 28z m119 -125 c22 -33 41 -62 41 -65 0 -3 -20 -19 -44 -35 -142 -98
-337 -367 -362 -499 -4 -18 -11 -31 -18 -29 -6 2 -28 27 -48 56 l-37 53 26 71
c48 135 166 314 270 410 48 45 115 96 124 97 3 0 25 -27 48 -59z m1156 15 c90
-53 147 -152 166 -291 38 -271 -99 -724 -334 -1103 -69 -110 -189 -282 -199
-282 -4 0 -8 17 -8 38 0 20 -4 73 -10 117 -10 82 -30 311 -51 584 l-12 153
-102 147 c-56 80 -127 182 -158 225 -31 43 -57 85 -57 91 0 14 101 105 190
172 109 82 251 153 344 173 74 16 182 5 231 -24z m-1005 -228 c28 -40 116
-165 195 -278 79 -113 162 -229 184 -259 37 -49 40 -56 28 -75 -35 -52 -182
-126 -252 -126 -38 0 -46 9 -270 326 -151 214 -174 249 -175 260 0 28 206 224
236 224 1 0 25 -33 54 -72z m-217 -361 c59 -83 149 -210 199 -282 l92 -130 4
-89 c3 -49 -1 -114 -7 -145 -14 -67 -51 -171 -60 -171 -4 0 -29 32 -56 70 -59
83 -238 334 -290 405 -93 127 -135 190 -135 202 0 12 3 20 36 103 21 53 96
190 103 190 4 0 55 -69 114 -153z m671 -324 c3 -21 15 -130 26 -243 12 -113
23 -212 25 -221 3 -8 -8 -28 -26 -45 -17 -16 -40 -46 -50 -67 -14 -27 -25 -37
-37 -33 -9 3 -89 22 -177 42 -88 21 -162 39 -163 40 -4 2 21 62 39 96 5 10 9
24 9 33 0 8 7 34 15 59 8 24 17 84 19 132 l4 89 28 3 c80 7 177 57 238 121 17
17 33 31 37 31 4 0 10 -17 13 -37z"/>
<path d="M18221 14724 c-7 -20 -11 -38 -8 -40 3 -3 10 11 17 31 16 47 8 55 -9
9z"/>
<path d="M18195 14640 c-4 -12 -5 -24 -2 -27 3 -2 8 5 12 17 4 12 5 24 2 27
-3 2 -8 -5 -12 -17z"/>
<path d="M18171 14554 c0 -11 3 -14 6 -6 3 7 2 16 -1 19 -3 4 -6 -2 -5 -13z"/>
<path d="M18145 14450 c-4 -12 -5 -24 -2 -27 3 -2 8 5 12 17 4 12 5 24 2 27
-3 2 -8 -5 -12 -17z"/>
<path d="M18111 14294 c0 -11 3 -14 6 -6 3 7 2 16 -1 19 -3 4 -6 -2 -5 -13z"/>
<path d="M3980 13046 c0 -3 9 -10 20 -16 11 -6 20 -8 20 -6 0 3 -9 10 -20 16
-11 6 -20 8 -20 6z"/>
<path d="M4035 13011 c12 -11 115 -53 115 -46 0 4 -41 23 -100 46 -17 7 -22 7
-15 0z"/>
<path d="M4160 12953 c1 -9 141 -75 147 -69 4 3 -133 76 -143 76 -2 0 -4 -3
-4 -7z"/>
<path d="M4365 12850 c22 -11 44 -20 50 -20 15 1 -57 39 -75 40 -8 0 3 -9 25
-20z"/>
<path d="M4430 12822 c0 -6 9 -12 20 -15 11 -3 20 -3 20 -1 0 2 -9 8 -20 14
-11 6 -20 7 -20 2z"/>
<path d="M4501 12786 c10 -9 69 -36 69 -32 0 6 -55 36 -66 36 -4 0 -5 -2 -3
-4z"/>
<path d="M3961 12669 c0 -46 4 -102 9 -124 5 -25 6 4 3 80 -7 141 -13 165 -12
44z"/>
<path d="M20308 12743 c7 -3 16 -2 19 1 4 3 -2 6 -13 5 -11 0 -14 -3 -6 -6z"/>
<path d="M4633 12714 c27 -14 51 -23 53 -21 6 5 -78 47 -92 47 -5 -1 13 -12
39 -26z"/>
<path d="M20155 12680 c-3 -6 1 -7 9 -4 18 7 21 14 7 14 -6 0 -13 -4 -16 -10z"/>
<path d="M4701 12677 c19 -15 79 -47 79 -43 0 8 -62 46 -74 46 -5 0 -7 -1 -5
-3z"/>
<path d="M20100 12629 c0 -5 5 -7 10 -4 6 3 10 8 10 11 0 2 -4 4 -10 4 -5 0
-10 -5 -10 -11z"/>
<path d="M4840 12575 c18 -19 36 -33 38 -30 5 5 -53 65 -64 65 -4 0 7 -16 26
-35z"/>
<path d="M20076 12594 c-4 -9 -4 -19 -1 -22 2 -3 7 3 11 12 4 9 4 19 1 22 -2
3 -7 -3 -11 -12z"/>
<path d="M4900 12524 c0 -13 18 -39 24 -34 2 3 -2 14 -10 24 -8 11 -14 16 -14
10z"/>
<path d="M20047 12516 c-4 -10 -5 -21 -2 -24 9 -9 17 6 13 25 -3 17 -4 17 -11
-1z"/>
<path d="M4942 12460 c14 -22 24 -19 15 5 -4 8 -11 15 -17 15 -6 0 -6 -7 2
-20z"/>
<path d="M19491 12454 c0 -11 3 -14 6 -6 3 7 2 16 -1 19 -3 4 -6 -2 -5 -13z"/>
<path d="M20032 12415 c0 -16 2 -22 5 -12 2 9 2 23 0 30 -3 6 -5 -1 -5 -18z"/>
<path d="M4376 12297 c3 -67 9 -159 13 -203 4 -46 3 -88 -3 -96 -5 -9 -6 -23
-3 -31 9 -24 200 -117 240 -117 37 0 77 24 77 47 0 11 -5 9 -19 -8 -17 -21
-20 -22 -52 -9 -19 8 -74 35 -124 60 l-90 47 -6 99 c-10 145 -12 274 -6 280
11 11 206 -107 236 -143 17 -20 31 -31 31 -24 0 30 -99 112 -198 165 l-102 54
6 -121z"/>
<path d="M20285 12399 c-45 -17 -86 -34 -182 -76 -18 -8 -33 -15 -33 -17 0 -7
51 7 56 15 3 5 12 9 19 9 8 0 38 11 67 24 29 13 70 30 90 36 21 6 40 16 43 21
8 12 -1 10 -60 -12z"/>
<path d="M4990 12396 c0 -2 7 -9 15 -16 13 -11 14 -10 9 4 -5 14 -24 23 -24
12z"/>
<path d="M19482 12365 c0 -16 2 -22 5 -12 2 9 2 23 0 30 -3 6 -5 -1 -5 -18z"/>
<path d="M20032 12350 c0 -19 2 -27 5 -17 2 9 2 25 0 35 -3 9 -5 1 -5 -18z"/>
<path d="M3982 12340 c0 -19 2 -27 5 -17 2 9 2 25 0 35 -3 9 -5 1 -5 -18z"/>
<path d="M5026 12347 c3 -10 9 -15 12 -12 3 3 0 11 -7 18 -10 9 -11 8 -5 -6z"/>
<path d="M5046 12307 c3 -10 9 -15 12 -12 3 3 0 11 -7 18 -10 9 -11 8 -5 -6z"/>
<path d="M20026 12295 c-3 -9 0 -15 9 -15 8 0 15 7 15 15 0 8 -4 15 -9 15 -5
0 -11 -7 -15 -15z"/>
<path d="M19472 12170 c0 -14 2 -19 5 -12 2 6 2 18 0 25 -3 6 -5 1 -5 -13z"/>
<path d="M4670 12161 c0 -6 5 -13 10 -16 6 -3 10 1 10 9 0 9 -4 16 -10 16 -5
0 -10 -4 -10 -9z"/>
<path d="M4704 12013 c0 -50 4 -89 8 -87 10 6 9 119 -1 154 -4 13 -7 -17 -7
-67z"/>
<path d="M19466 12081 c-3 -5 -41 -21 -83 -37 -86 -30 -89 -32 -81 -39 3 -3
37 8 76 25 39 16 78 30 86 30 9 0 16 7 16 15 0 17 -6 19 -14 6z"/>
<path d="M19225 11980 c-8 -13 5 -13 25 0 13 8 13 10 -2 10 -9 0 -20 -4 -23
-10z"/>
<path d="M19148 11893 c-2 -10 -1 -29 3 -43 6 -20 7 -17 8 18 1 44 -4 54 -11
25z"/>
<path d="M4415 11413 c4 -82 10 -205 14 -275 l6 -126 137 -71 c105 -54 146
-71 178 -71 86 0 110 37 110 173 0 168 -55 284 -175 367 -42 29 -261 150 -272
150 -3 0 -3 -66 2 -147z"/>
<path d="M5625 9700 c3 -5 8 -10 11 -10 2 0 4 5 4 10 0 6 -5 10 -11 10 -5 0
-7 -4 -4 -10z"/>
<path d="M16036 4076 c-49 -19 -101 -44 -117 -55 -15 -12 -31 -21 -34 -21 -9
0 -125 -90 -125 -96 0 -6 -3 -7 96 57 146 96 334 151 390 115 35 -24 42 -13 8
13 -40 32 -110 28 -218 -13z"/>
<path d="M15466 3833 c-6 -14 -5 -15 5 -6 7 7 10 15 7 18 -3 3 -9 -2 -12 -12z"/>
</g>
</svg>
