<?xml version="1.0" standalone="no"?>
<!DOCTYPE svg PUBLIC "-//W3C//DTD SVG 20010904//EN"
 "http://www.w3.org/TR/2001/REC-SVG-20010904/DTD/svg10.dtd">
<svg version="1.0" xmlns="http://www.w3.org/2000/svg"
 width="512.000000pt" height="512.000000pt" viewBox="0 0 512.000000 512.000000"
 preserveAspectRatio="xMidYMid meet">

<g transform="translate(0.000000,512.000000) scale(0.100000,-0.100000)"
fill="#000000" stroke="none">
<path d="M2420 5003 c-316 -34 -623 -179 -844 -398 -96 -96 -149 -163 -215
-274 -88 -146 -97 -190 -47 -248 20 -23 32 -28 69 -28 58 0 85 25 138 125 175
336 542 575 934 610 544 48 1044 -282 1219 -804 85 -254 73 -559 -33 -815
-151 -369 -509 -646 -911 -707 -595 -89 -1171 301 -1310 890 -11 46 -24 133
-29 193 -10 125 -24 156 -77 173 -62 21 -120 -12 -136 -77 -8 -32 8 -214 27
-308 62 -297 245 -595 487 -790 l37 -30 -301 -400 c-165 -220 -313 -420 -329
-444 -41 -63 -39 -103 6 -148 32 -32 40 -35 76 -30 22 3 49 13 60 23 13 12
648 853 665 882 1 2 25 -8 52 -22 357 -181 847 -181 1204 0 27 14 51 24 52 22
17 -29 652 -870 665 -882 11 -10 38 -20 60 -23 36 -5 44 -2 76 30 45 45 47 85
6 148 -16 24 -164 224 -329 444 l-301 400 37 30 c242 195 425 493 487 790 33
159 37 374 10 531 -17 98 -70 259 -119 359 -180 369 -495 628 -900 740 -126
35 -351 52 -486 38z"/>
<path d="M2445 4567 c-68 -23 -126 -57 -176 -104 -254 -238 -121 -668 225
-725 132 -22 267 22 364 119 136 136 165 351 68 516 -38 65 -117 134 -194 170
-57 27 -80 32 -157 34 -55 2 -105 -2 -130 -10z m178 -208 c52 -14 112 -71 133
-124 24 -65 16 -144 -22 -198 -113 -160 -366 -96 -382 98 -13 155 121 266 271
224z"/>
<path d="M2285 3513 c-202 -29 -366 -158 -436 -342 -46 -123 -43 -230 8 -270
46 -37 126 -22 152 28 6 10 15 49 21 86 19 117 77 201 175 253 l50 27 305 0
c301 0 306 0 350 -24 101 -52 161 -139 180 -256 6 -38 15 -76 21 -86 26 -50
106 -65 152 -28 37 28 49 80 36 158 -34 211 -172 370 -379 437 -46 14 -100 18
-330 20 -151 1 -288 0 -305 -3z"/>
<path d="M2497 2000 c-15 -12 -31 -38 -37 -58 -5 -21 -10 -151 -10 -303 l0
-266 -52 -12 c-162 -37 -330 -174 -407 -331 -160 -327 -34 -697 295 -863 159
-80 389 -80 548 0 218 110 348 304 363 543 7 111 -14 210 -68 320 -77 157
-245 294 -406 331 l-53 12 0 266 c0 152 -5 282 -10 303 -14 48 -52 78 -100 78
-22 0 -48 -8 -63 -20z m144 -840 c214 -40 370 -257 338 -470 -11 -75 -22 -110
-53 -163 -38 -65 -116 -134 -194 -170 -62 -30 -75 -32 -172 -32 -97 0 -110 2
-172 32 -107 51 -200 150 -230 246 -97 318 162 617 483 557z"/>
<path d="M485 1364 c-171 -41 -336 -174 -414 -334 -54 -110 -75 -209 -68 -320
18 -281 208 -514 478 -585 133 -36 315 -18 433 42 218 110 348 304 363 543 19
300 -194 586 -487 654 -81 19 -225 19 -305 0z m236 -204 c214 -40 370 -257
338 -470 -11 -75 -22 -110 -53 -163 -38 -65 -116 -134 -194 -170 -62 -30 -75
-32 -172 -32 -97 0 -110 2 -172 32 -107 51 -200 150 -230 246 -97 318 162 617
483 557z"/>
<path d="M4325 1364 c-171 -41 -336 -174 -414 -334 -54 -110 -75 -209 -68
-320 18 -281 208 -514 478 -585 133 -36 315 -18 433 42 218 110 348 304 363
543 19 300 -194 586 -487 654 -81 19 -225 19 -305 0z m236 -204 c214 -40 370
-257 338 -470 -11 -75 -22 -110 -53 -163 -38 -65 -116 -134 -194 -170 -62 -30
-75 -32 -172 -32 -97 0 -110 2 -172 32 -107 51 -200 150 -230 246 -97 318 162
617 483 557z"/>
<path d="M1490 745 l0 -105 110 0 110 0 0 105 0 105 -110 0 -110 0 0 -105z"/>
<path d="M3410 745 l0 -105 110 0 110 0 0 105 0 105 -110 0 -110 0 0 -105z"/>
</g>
</svg>
